SplineFontDB: 3.2
FontName: TriumphRegular
FullName: Triumph Regular
FamilyName: Triumph
Weight: Regular
Copyright: Copyright (c) 2025, Conley Ball
UComments: "Created May 12th, 2025"
Version: 001.000
ItalicAngle: 0
UnderlinePosition: -102
UnderlineWidth: 51
Ascent: 768
Descent: 256
InvalidEm: 0
LayerCount: 2
Layer: 0 0 "Back" 1
Layer: 1 0 "Fore" 0
XUID: [1021 458 -1016138486 4714324]
FSType: 0
OS2Version: 0
OS2_WeightWidthSlopeOnly: 0
OS2_UseTypoMetrics: 1
CreationTime: 1746827633
ModificationTime: 1747070806
PfmFamily: 17
TTFWeight: 400
TTFWidth: 5
LineGap: 92
VLineGap: 0
OS2TypoAscent: 0
OS2TypoAOffset: 1
OS2TypoDescent: 0
OS2TypoDOffset: 1
OS2TypoLinegap: 92
OS2WinAscent: 0
OS2WinAOffset: 1
OS2WinDescent: 0
OS2WinDOffset: 1
HheadAscent: 0
HheadAOffset: 1
HheadDescent: 0
HheadDOffset: 1
OS2Vendor: 'PfEd'
Lookup: 4 0 0 "'liga' Standard Ligatures in Latin lookup 0" { "'liga' Standard Ligatures in Latin lookup 0-1"  } ['liga' ('DFLT' <'dflt' > 'latn' <'dflt' > ) ]
Lookup: 258 0 0 "Caps" { "MAIN" [153,15,2] } ['kern' ('latn' <'dflt' > ) ]
MarkAttachClasses: 1
DEI: 91125
LangName: 1033
Encoding: ISO8859-1
UnicodeInterp: none
NameList: AGL For New Fonts
DisplaySize: -48
AntiAlias: 1
FitToEm: 0
WinInfo: 32 16 4
BeginPrivate: 0
EndPrivate
Grid
-386.499984741 1280 m 0
 -386.499984741 -768 l 1024
EndSplineSet
TeXData: 1 0 0 346030 173015 115343 0 1048576 115343 783286 444596 497025 792723 393216 433062 380633 303038 157286 324010 404750 52429 2506097 1059062 262144
BeginChars: 264 87

StartChar: E
Encoding: 69 69 0
Width: 646
Flags: HW
LayerCount: 2
Fore
SplineSet
39 760 m 0
 48 763 118 765 209 765 c 0
 241 765 276 764 311 764 c 0
 562 762 562 763 579 743 c 0
 589 732 593 724 593 712 c 0
 593 707 592 702 591 696 c 0
 583 643 565 592 554 582 c 0
 550 579 546 576 543 576 c 0
 534 576 524 591 502 632 c 0
 473 685 452 694 339 700 c 0
 321 701 306 702 293 702 c 0
 234 702 230 685 223 607 c 0
 219 570 216 521 216 496 c 0
 216 453 222 435 253 435 c 0
 269 435 293 440 325 448 c 0
 368 459 383 472 394 507 c 0
 403 538 419 557 434 557 c 0
 437 557 441 556 444 554 c 0
 455 547 457 529 457 398 c 0
 457 281 455 248 447 241 c 0
 445 239 442 238 439 238 c 0
 425 238 409 265 396 308 c 0
 389 333 378 353 368 359 c 0
 352 369 300 376 265 376 c 0
 248 376 236 375 231 371 c 0
 223 364 220 344 220 269 c 0
 220 259 220 249 220 237 c 0
 221 112 220 112 243 91 c 0
 266 70 266 70 381 70 c 0
 484 70 498 71 515 85 c 0
 533 99 558 156 558 183 c 0
 558 202 602 249 618 249 c 0
 619 249 619 249 620 249 c 0
 633 244 638 226 638 177 c 0
 638 159 637 137 636 110 c 0
 632 33 629 15 618 5 c 0
 609 -3 595 -6 526 -6 c 0
 498 -6 462 -6 414 -5 c 0
 349 -4 275 -3 215 -3 c 0
 178 -3 146 -3 126 -4 c 0
 113 -4 102 -4 92 -4 c 0
 16 -4 8 2 8 36 c 0
 8 57 12 61 40 74 c 0
 58 82 76 96 81 106 c 0
 87 117 89 197 91 339 c 0
 93 458 94 581 94 612 c 0
 94 618 94 624 94 629 c 0
 94 665 91 669 76 677 c 0
 65 682 47 689 36 691 c 0
 17 695 8 709 8 724 c 0
 8 740 19 755 39 760 c 0
EndSplineSet
Validated: 1
EndChar

StartChar: A
Encoding: 65 65 1
Width: 746
Flags: HW
LayerCount: 2
Fore
SplineSet
380 777 m 0
 387 780 395 781 403 781 c 0
 411 781 421 780 428 777 c 0
 444 770 474 710 486 658 c 0
 503 584 530 491 594 295 c 0
 657 104 658 105 689 86 c 0
 729 64 743 48 743 29 c 0
 743 25 742 21 741 17 c 0
 737 2 738 -2 686 -2 c 0
 666 -2 638 -2 600 -1 c 0
 497 1 461 5 451 13 c 0
 444 19 441 26 441 33 c 0
 441 46 452 60 473 70 c 0
 502 83 516 95 516 116 c 0
 516 130 510 150 498 176 c 0
 488 198 475 231 470 248 c 0
 456 303 448 308 377 312 c 0
 368 312 360 313 352 313 c 0
 290 313 260 301 244 273 c 0
 228 247 201 150 201 119 c 0
 201 99 229 69 270 48 c 0
 287 39 299 26 299 15 c 0
 299 11 297 6 294 3 c 0
 289 -2 244 -8 192 -11 c 0
 140 -15 89 -19 78 -21 c 0
 76 -21 73 -21 71 -21 c 0
 46 -21 11 2 5 26 c 0
 4 31 3 37 3 43 c 0
 3 51 4 60 6 66 c 0
 12 83 19 87 52 90 c 0
 73 92 98 99 104 105 c 0
 111 110 124 144 135 181 c 0
 158 256 181 321 192 341 c 0
 235 418 277 523 320 661 c 0
 339 723 364 770 380 777 c 0
389 525 m 0
 379 535 366 543 360 543 c 0
 346 543 327 510 316 462 c 0
 313 449 312 441 312 434 c 0
 312 425 315 418 321 411 c 0
 330 401 347 397 363 397 c 0
 385 397 409 407 414 422 c 0
 416 428 416 435 416 443 c 0
 416 471 404 510 389 525 c 0
EndSplineSet
Validated: 1
EndChar

StartChar: B
Encoding: 66 66 2
Width: 631
Flags: HW
LayerCount: 2
Fore
SplineSet
35 755 m 0
 42 763 68 766 163 766 c 0
 176 766 188 766 203 766 c 0
 374 765 469 752 509 724 c 0
 545 698 563 648 563 576 c 0
 563 570 563 565 563 559 c 0
 562 521 526 480 460 441 c 0
 446 433 434 423 434 418 c 0
 434 412 457 398 486 387 c 0
 573 353 611 298 611 205 c 0
 611 101 585 59 498 22 c 0
 446 -1 446 -1 245 -4 c 0
 207 -4 177 -4 151 -4 c 0
 27 -4 20 2 20 33 c 0
 20 52 51 73 78 73 c 0
 111 73 113 87 115 306 c 0
 117 421 120 542 122 578 c 0
 123 591 123 603 123 613 c 0
 123 664 111 676 68 691 c 0
 36 702 31 707 29 725 c 0
 29 727 28 728 28 730 c 0
 28 740 31 751 35 755 c 0
337 705 m 0
 323 710 298 714 282 714 c 0
 239 714 232 697 230 601 c 0
 229 575 229 553 229 535 c 0
 229 473 232 452 241 443 c 0
 248 437 267 433 291 433 c 0
 320 433 354 439 373 448 c 0
 406 464 441 518 447 561 c 0
 448 565 448 568 448 572 c 0
 448 624 399 684 337 705 c 0
425 372 m 0
 410 380 312 388 262 388 c 0
 248 388 238 388 235 386 c 0
 231 384 228 330 228 255 c 0
 228 213 229 166 230 116 c 0
 231 108 241 92 253 80 c 0
 271 62 281 58 311 58 c 0
 383 58 434 83 476 137 c 0
 495 163 505 185 505 212 c 0
 505 231 500 251 491 277 c 0
 471 334 458 355 425 372 c 0
EndSplineSet
Validated: 1
EndChar

StartChar: C
Encoding: 67 67 3
Width: 664
Flags: HW
LayerCount: 2
Fore
SplineSet
283 754 m 0
 312 770 328 771 394 772 c 0
 467 772 473 771 526 746 c 0
 557 732 593 720 607 720 c 0
 644 720 650 711 650 652 c 0
 650 649 650 645 650 641 c 0
 649 558 644 543 617 543 c 0
 598 543 592 548 575 579 c 0
 531 661 458 709 378 709 c 0
 366 709 354 707 342 705 c 0
 292 696 275 682 231 623 c 0
 173 545 149 471 149 374 c 0
 149 371 149 368 149 365 c 0
 151 285 164 248 217 171 c 0
 264 103 302 73 358 62 c 0
 372 59 384 58 397 58 c 0
 461 58 513 97 570 185 c 0
 587 211 604 232 609 234 c 0
 613 235 616 236 619 236 c 0
 634 236 640 216 642 165 c 0
 643 155 643 145 643 136 c 0
 643 81 631 61 599 51 c 0
 584 46 550 33 524 20 c 0
 481 0 466 -4 392 -7 c 0
 371 -8 356 -8 343 -8 c 0
 305 -8 294 -3 251 17 c 0
 175 52 106 117 70 187 c 0
 38 247 29 281 20 367 c 0
 16 406 14 428 14 444 c 0
 14 463 17 471 24 482 c 0
 30 491 42 517 50 540 c 0
 59 563 76 597 90 616 c 0
 120 658 188 715 223 727 c 0
 237 732 264 744 283 754 c 0
EndSplineSet
Validated: 1
EndChar

StartChar: D
Encoding: 68 68 4
Width: 841
Flags: HW
LayerCount: 2
Fore
SplineSet
61 765 m 0
 69 766 84 767 108 767 c 0
 157 767 245 764 400 759 c 0
 507 756 524 752 590 725 c 0
 671 691 754 623 783 566 c 0
 808 516 830 426 830 368 c 0
 830 300 792 191 747 131 c 0
 721 96 693 74 645 49 c 0
 554 1 503 -11 328 -11 c 0
 306 -11 282 -10 255 -10 c 0
 48 -6 21 -4 13 18 c 0
 12 22 11 25 11 28 c 0
 11 45 33 55 79 59 c 0
 109 61 138 67 145 73 c 0
 153 79 156 129 156 282 c 0
 156 309 155 339 155 372 c 0
 154 678 157 688 95 688 c 0
 90 688 85 688 80 688 c 0
 40 688 32 690 23 711 c 0
 20 718 19 725 19 731 c 0
 19 749 34 761 61 765 c 0
457 678 m 0
 409 690 379 696 359 696 c 0
 337 696 325 689 309 675 c 0
 283 653 283 651 280 532 c 0
 279 466 278 337 277 244 c 0
 277 220 277 199 277 180 c 0
 277 71 282 52 338 52 c 0
 352 52 370 53 392 54 c 0
 464 58 480 63 542 96 c 0
 620 138 653 177 675 258 c 0
 684 291 689 321 689 352 c 0
 689 383 684 415 675 453 c 0
 641 587 584 646 457 678 c 0
EndSplineSet
Validated: 1
EndChar

StartChar: F
Encoding: 70 70 5
Width: 607
Flags: HW
LayerCount: 2
Fore
SplineSet
21 760 m 0
 31 767 134 770 249 770 c 0
 400 770 572 764 583 755 c 0
 591 748 596 729 596 695 c 0
 596 692 596 688 596 685 c 0
 595 630 594 593 578 593 c 0
 568 593 551 608 524 642 c 1
 503 683 458 698 363 698 c 0
 268 698 251 696 251 606 c 0
 251 589 251 568 252 544 c 0
 254 454 258 426 270 419 c 0
 279 413 325 411 374 411 c 0
 427 411 481 414 493 420 c 0
 502 425 510 438 512 450 c 0
 514 466 522 472 539 472 c 0
 563 472 563 472 564 391 c 0
 564 386 564 381 564 376 c 0
 564 303 557 285 529 285 c 0
 516 285 510 292 510 308 c 0
 510 321 505 334 499 340 c 0
 492 345 438 353 379 357 c 0
 347 359 324 360 307 360 c 0
 279 360 268 357 264 351 c 0
 259 344 257 294 257 239 c 0
 257 168 261 88 267 82 c 0
 272 77 295 68 318 61 c 0
 349 52 363 45 363 33 c 0
 363 27 359 20 352 11 c 0
 339 -6 327 -9 198 -9 c 0
 68 -9 56 -6 43 11 c 0
 36 21 32 29 32 37 c 0
 32 51 44 61 68 68 c 0
 86 73 106 75 112 79 c 0
 118 83 121 220 121 362 c 0
 121 510 118 662 112 672 c 0
 108 678 88 691 67 694 c 0
 38 699 25 707 17 725 c 0
 13 733 11 739 11 744 c 0
 11 750 15 755 21 760 c 0
EndSplineSet
Validated: 1
EndChar

StartChar: G
Encoding: 71 71 6
Width: 745
Flags: HW
LayerCount: 2
Fore
SplineSet
335 759 m 0
 375 767 409 771 441 771 c 0
 487 771 530 763 584 746 c 0
 625 733 664 723 678 723 c 0
 680 723 681 724 682 724 c 0
 683 724 685 725 686 725 c 0
 695 725 699 713 707 677 c 0
 714 644 717 618 717 597 c 0
 717 563 708 545 690 545 c 0
 684 545 677 547 668 552 c 0
 656 558 639 574 633 586 c 0
 627 598 603 626 582 646 c 0
 552 673 531 684 499 689 c 0
 476 693 454 695 433 695 c 0
 327 695 255 643 200 533 c 0
 176 485 173 475 173 405 c 0
 173 395 173 382 173 369 c 0
 173 271 175 259 198 211 c 0
 226 154 273 109 335 80 c 0
 361 68 377 64 406 64 c 0
 414 64 423 64 433 65 c 0
 465 68 506 76 525 85 c 0
 560 102 572 127 582 211 c 0
 583 221 583 230 583 237 c 0
 583 269 572 281 531 307 c 0
 499 327 480 341 480 349 c 0
 480 358 501 360 549 360 c 0
 565 360 584 360 606 359 c 0
 670 358 725 357 729 357 c 0
 734 357 736 348 736 338 c 0
 736 323 731 303 724 296 c 0
 717 289 711 247 708 185 c 0
 704 87 704 86 667 58 c 0
 601 8 539 -10 433 -11 c 0
 351 -11 331 -8 270 14 c 0
 211 36 191 49 141 98 c 0
 66 172 30 234 16 314 c 0
 12 339 9 363 9 386 c 0
 9 471 40 540 113 634 c 0
 161 695 242 740 335 759 c 0
EndSplineSet
Validated: 1
EndChar

StartChar: H
Encoding: 72 72 7
Width: 862
Flags: HW
LayerCount: 2
Fore
SplineSet
147 761 m 0
 169 761 187 762 203 762 c 0
 272 762 292 757 302 745 c 0
 307 738 310 733 310 728 c 0
 310 718 298 709 268 695 c 0
 244 684 222 671 220 664 c 0
 216 651 213 574 213 513 c 0
 213 473 214 441 217 436 c 0
 221 428 238 425 331 425 c 0
 355 425 385 425 421 425 c 0
 571 426 621 429 630 436 c 0
 640 444 642 465 642 555 c 0
 642 664 641 663 618 678 c 0
 605 686 586 696 576 698 c 0
 541 711 526 722 526 730 c 0
 526 752 625 757 707 757 c 0
 764 757 813 755 816 752 c 0
 830 752 842 748 844 741 c 0
 845 738 846 734 846 730 c 0
 846 713 837 688 819 686 c 0
 802 684 766 660 761 645 c 0
 755 627 750 526 750 460 c 0
 750 441 751 424 752 414 c 0
 752 410 752 403 752 391 c 0
 752 359 751 302 749 244 c 0
 747 196 746 164 746 142 c 0
 746 98 750 94 764 82 c 0
 782 67 855 36 855 18 c 0
 855 14 851 10 842 7 c 0
 826 2 721 0 645 -0 c 0
 601 0 566 1 563 3 c 0
 553 9 541 33 541 43 c 0
 541 44 541 45 542 46 c 0
 544 50 562 56 583 62 c 0
 604 68 625 77 629 83 c 0
 635 90 638 136 640 213 c 0
 641 241 642 263 642 281 c 0
 642 351 627 358 518 358 c 0
 494 358 465 357 431 357 c 0
 327 357 249 354 237 350 c 0
 219 343 217 337 213 293 c 0
 211 277 210 249 210 220 c 0
 210 201 210 183 211 166 c 0
 214 98 217 88 231 76 c 0
 240 69 257 62 268 62 c 0
 301 62 326 50 326 34 c 0
 326 26 323 17 318 14 c 0
 308 7 166 -1 90 -1 c 0
 73 -1 58 0 50 1 c 0
 13 5 11 6 11 27 c 0
 11 59 22 76 51 82 c 0
 87 88 94 85 94 236 c 0
 94 275 93 323 93 384 c 0
 92 659 92 661 75 673 c 0
 66 680 50 687 38 689 c 0
 19 693 7 707 7 722 c 0
 7 727 8 732 11 737 c 0
 21 756 36 759 147 761 c 0
EndSplineSet
Validated: 1
EndChar

StartChar: I
Encoding: 73 73 8
Width: 376
Flags: HW
HStem: -10 21G<261.5 299.5> 1 79<29.2639 116.038> 686 73<271.135 345.434> 706 61<23.9655 61.4866>
VStem: 129 128<100.533 673.637>
LayerCount: 2
Fore
SplineSet
39 767 m 0x58
 43 768 51 768 62 768 c 0
 71 768 82 768 91 767 c 0x58
 113 765 173 761 226 759 c 0
 247 758 356 756 356 723 c 0
 356 718 353 711 346 704 c 0
 334 694 317 686 307 686 c 0
 297 686 284 679 276 671 c 0
 263 657 261 632 258 390 c 0
 257 332 257 278 257 231 c 0
 257 159 257 107 259 98 c 0
 263 76 269 68 293 59 c 0
 326 46 346 27 346 11 c 0
 346 8 346 5 344 2 c 0
 339 -7 328 -10 271 -10 c 0xa8
 252 -10 229 -10 198 -9 c 0
 122 -7 55 -3 47 1 c 0
 32 9 21 27 21 41 c 0
 21 44 21 47 22 49 c 0
 27 61 51 72 88 80 c 0
 100 83 113 92 118 100 c 0
 123 110 127 208 129 361 c 0
 131 495 134 611 134 617 c 0
 135 623 135 629 135 635 c 0
 135 676 115 699 74 706 c 0
 39 711 20 724 20 740 c 0
 20 742 20 744 21 747 c 0
 23 755 32 765 39 767 c 0x58
EndSplineSet
Validated: 1
EndChar

StartChar: J
Encoding: 74 74 9
Width: 389
Flags: HW
LayerCount: 2
Fore
SplineSet
164 766 m 0
 192 767 226 768 258 768 c 0
 303 768 344 765 362 756 c 0
 375 749 380 744 380 738 c 0
 380 730 370 723 361 716 c 0
 355 711 332 703 310 699 c 0
 288 695 266 687 260 681 c 0
 249 669 248 641 235 187 c 0
 232 76 227 3 220 -13 c 0
 214 -26 201 -59 191 -85 c 0
 176 -122 160 -143 115 -182 c 0
 59 -231 3 -256 -42 -256 c 0
 -71 -256 -96 -245 -112 -223 c 0
 -120 -212 -125 -199 -125 -185 c 0
 -125 -161 -112 -137 -90 -126 c 0
 -81 -122 -75 -119 -67 -119 c 0
 -57 -119 -45 -124 -22 -133 c 0
 2 -143 22 -149 38 -149 c 0
 104 -149 114 -46 119 328 c 0
 121 456 125 583 128 610 c 0
 130 624 131 634 131 642 c 0
 131 660 126 665 110 678 c 0
 97 689 82 698 77 698 c 0
 73 698 58 707 45 719 c 0
 32 730 26 735 26 741 c 0
 26 744 28 747 31 751 c 0
 39 761 66 764 164 766 c 0
EndSplineSet
Validated: 1
EndChar

StartChar: K
Encoding: 75 75 10
Width: 685
Flags: HW
LayerCount: 2
Fore
SplineSet
45 757 m 0
 53 761 86 762 125 762 c 0
 185 762 258 759 275 752 c 0
 286 747 295 741 295 736 c 0
 295 731 281 713 264 696 c 0
 237 668 233 659 228 613 c 0
 223 578 221 551 221 528 c 0
 221 500 224 480 231 470 c 0
 237 461 241 458 248 458 c 0
 252 458 257 459 265 462 c 0
 277 466 295 479 304 491 c 0
 314 502 336 532 355 556 c 0
 374 580 402 611 418 626 c 0
 436 643 444 657 444 668 c 0
 444 681 434 690 412 703 c 0
 390 716 379 725 379 732 c 0
 379 737 385 743 395 749 c 0
 411 759 513 765 586 765 c 0
 621 765 649 764 658 760 c 0
 671 754 677 746 677 738 c 0
 677 721 651 702 610 697 c 0
 556 690 504 650 459 606 c 0
 381 534 338 494 338 469 c 0
 338 449 371 386 377 378 c 0
 385 366 412 338 488 203 c 0
 559 78 568 71 640 70 c 0
 658 70 670 64 670 37 c 0
 670 13 664 5 598 5 c 0
 579 5 554 6 523 7 c 0
 454 9 395 13 390 18 c 0
 389 19 388 21 388 23 c 0
 388 29 393 40 403 54 c 0
 413 69 418 75 418 85 c 0
 418 94 414 106 405 129 c 0
 377 200 305 331 288 340 c 0
 279 345 271 348 263 348 c 0
 249 348 238 340 228 324 c 0
 217 305 213 290 213 232 c 0
 213 225 213 217 213 209 c 0
 214 159 217 112 219 102 c 0
 222 93 237 77 254 68 c 0
 276 56 287 43 287 31 c 0
 287 25 284 19 279 13 c 0
 272 5 252 3 187 3 c 0
 141 3 94 1 81 -1 c 0
 75 -2 67 -3 59 -3 c 0
 51 -3 42 -2 35 -1 c 0
 16 3 11 7 9 24 c 0
 8 29 8 33 8 37 c 0
 8 63 21 78 44 78 c 0
 95 78 99 103 104 393 c 0
 106 501 110 601 115 622 c 0
 118 636 120 644 120 651 c 0
 120 661 116 666 104 676 c 0
 93 686 77 693 67 693 c 0
 42 693 26 711 26 729 c 0
 26 740 32 751 45 757 c 0
EndSplineSet
Validated: 1
EndChar

StartChar: L
Encoding: 76 76 11
Width: 742
Flags: HW
LayerCount: 2
Fore
SplineSet
50 753 m 0
 60 758 91 760 155 760 c 0
 174 760 196 760 222 760 c 0
 371 757 397 754 397 730 c 0
 397 728 397 726 397 723 c 0
 395 709 370 698 309 685 c 0
 276 679 277 688 269 317 c 0
 268 258 266 213 266 179 c 0
 266 79 279 71 347 71 c 0
 360 71 376 71 394 71 c 0
 501 71 548 83 604 125 c 0
 628 143 694 204 716 204 c 2
 717 204 l 2
 725 203 729 192 729 174 c 0
 729 147 719 104 699 63 c 0
 673 9 628 -8 559 -8 c 0
 541 -8 521 -7 500 -5 c 0
 438 -2 319 1 235 1 c 0
 79 1 13 10 13 33 c 0
 13 46 41 64 78 74 c 0
 95 78 113 88 117 95 c 0
 121 102 123 144 123 186 c 0
 123 205 123 224 123 243 c 0
 123 410 127 549 132 586 c 0
 134 599 134 611 134 621 c 0
 134 635 132 647 129 658 c 0
 121 683 117 686 76 696 c 0
 37 706 31 710 31 726 c 0
 31 738 37 747 50 753 c 0
EndSplineSet
Validated: 1
EndChar

StartChar: M
Encoding: 77 77 12
Width: 970
Flags: HW
LayerCount: 2
Fore
SplineSet
56 762 m 0
 65 766 87 767 114 767 c 0
 153 767 204 764 249 758 c 0
 293 752 308 729 349 614 c 0
 366 564 394 491 408 451 c 0
 422 411 437 373 440 366 c 0
 443 359 450 334 457 312 c 0
 468 275 482 256 498 256 c 0
 516 256 534 280 548 326 c 0
 572 408 617 519 650 580 c 0
 666 611 685 653 690 674 c 0
 695 695 712 724 726 738 c 0
 751 762 754 763 851 763 c 0
 905 763 950 761 954 758 c 0
 956 755 958 752 958 748 c 0
 958 729 934 698 907 687 c 0
 888 680 870 669 866 664 c 0
 862 659 861 538 861 396 c 0
 862 100 864 88 924 64 c 0
 952 53 960 48 960 33 c 0
 960 30 959 27 959 24 c 0
 956 0 956 0 843 -3 c 0
 826 -4 808 -4 791 -4 c 0
 747 -4 708 -2 693 -0 c 0
 660 5 654 9 654 27 c 0
 654 43 661 52 683 61 c 0
 698 68 717 79 723 86 c 0
 733 99 741 281 741 420 c 0
 741 502 738 569 732 577 c 0
 728 583 724 587 720 587 c 0
 710 587 699 565 675 506 c 0
 661 472 627 397 598 342 c 0
 537 210 546 227 529 165 c 0
 519 143 510 111 506 93 c 0
 498 51 480 27 458 27 c 0
 454 27 450 28 446 30 c 0
 428 36 422 48 413 91 c 0
 400 160 320 383 287 442 c 0
 273 467 255 503 245 521 c 0
 231 549 219 562 210 562 c 0
 201 562 196 549 196 524 c 0
 196 515 196 504 198 492 c 0
 202 465 206 366 206 272 c 0
 207 106 206 100 227 86 c 0
 269 56 283 47 283 37 c 0
 283 33 281 30 278 25 c 0
 270 11 249 7 166 1 c 0
 129 -2 103 -3 80 -3 c 0
 63 -3 47 -3 31 -1 c 0
 16 1 10 8 10 16 c 0
 10 29 23 45 34 54 c 0
 53 69 75 83 98 86 c 0
 133 91 138 86 143 380 c 0
 145 461 146 520 146 562 c 0
 146 633 143 656 137 661 c 0
 131 666 103 681 78 695 c 0
 46 711 31 726 31 739 c 0
 31 748 39 756 56 762 c 0
EndSplineSet
Validated: 1
EndChar

StartChar: N
Encoding: 78 78 13
Width: 859
Flags: HW
LayerCount: 2
Fore
SplineSet
763 773 m 0
 781 777 800 779 805 780 c 2
 806 780 l 2
 819 780 836 759 836 742 c 0
 835 701 819 682 780 682 c 0
 775 682 768 682 762 683 c 0
 756 684 751 685 747 685 c 0
 729 685 722 676 722 637 c 0
 722 617 723 588 726 549 c 0
 727 503 728 469 728 437 c 0
 728 394 727 357 727 310 c 0
 727 267 728 217 730 144 c 0
 731 104 733 74 733 52 c 0
 733 16 729 1 709 1 c 0
 691 1 677 17 569 155 c 0
 545 186 494 246 457 286 c 0
 419 326 374 381 356 408 c 0
 311 478 263 523 239 523 c 0
 232 523 228 520 225 513 c 0
 222 505 221 491 221 475 c 0
 221 449 224 417 231 392 c 0
 236 372 241 347 241 333 c 2
 241 333 240 327 240 321 c 0
 240 261 253 108 259 97 c 0
 268 80 307 63 336 63 c 0
 347 63 361 59 366 54 c 0
 372 48 374 38 374 29 c 0
 374 19 372 10 366 6 c 0
 361 3 309 1 250 -0 c 0
 191 -1 127 -4 106 -7 c 0
 99 -8 91 -9 85 -9 c 0
 53 -9 30 5 30 26 c 0
 30 43 48 53 89 60 c 0
 106 63 129 72 141 82 c 0
 156 94 160 98 160 139 c 0
 160 158 159 184 158 222 c 0
 155 289 153 355 153 367 c 0
 153 379 153 442 155 507 c 0
 156 533 156 554 156 570 c 0
 156 616 153 630 147 638 c 0
 133 655 83 677 60 678 c 0
 34 678 23 691 23 722 c 0
 23 754 32 764 85 764 c 0
 99 764 117 763 139 762 c 0
 186 759 233 753 243 747 c 0
 253 742 280 713 301 683 c 0
 322 653 341 625 345 623 c 0
 349 620 364 600 378 578 c 0
 402 540 529 391 544 381 c 0
 548 378 568 355 591 326 c 0
 619 291 634 276 645 276 c 0
 651 276 655 280 660 286 c 0
 663 290 665 297 665 311 c 0
 665 329 662 358 657 406 c 0
 650 465 645 545 644 585 c 0
 643 666 640 672 587 682 c 0
 558 688 528 712 528 730 c 0
 528 756 549 763 641 764 c 0
 690 765 745 769 763 773 c 0
EndSplineSet
Validated: 1
EndChar

StartChar: O
Encoding: 79 79 14
Width: 739
Flags: HW
HStem: -10 67<300.544 463.787> 703 75<297.985 432.849>
VStem: 15 134<243.265 497.855> 611 113<256.526 481.338>
LayerCount: 2
Fore
SplineSet
326 772 m 0
 339 776 350 778 362 778 c 0
 381 778 401 773 433 762 c 0
 512 735 583 691 633 639 c 0
 671 599 711 517 720 462 c 0
 723 442 724 420 724 398 c 0
 724 344 716 286 701 247 c 0
 661 144 641 115 575 63 c 0
 504 7 458 -10 369 -10 c 0
 367 -10 365 -10 363 -10 c 0
 307 -10 279 -6 258 3 c 0
 215 21 155 66 105 114 c 0
 65 153 59 163 39 222 c 0
 23 273 15 320 15 366 c 0
 15 396 17 426 24 455 c 0
 33 498 45 523 79 575 c 0
 108 617 136 658 180 692 c 0
 224 726 290 762 326 772 c 0
428 683 m 0
 398 696 375 703 355 703 c 0
 338 703 325 698 310 689 c 0
 218 632 171 549 153 415 c 0
 150 393 149 373 149 354 c 0
 149 309 158 271 178 227 c 0
 216 145 247 106 299 80 c 0
 330 64 359 57 387 57 c 0
 429 57 467 74 506 110 c 0
 560 159 611 289 611 374 c 0
 611 415 582 515 553 576 c 0
 535 612 478 662 428 683 c 0
EndSplineSet
Validated: 1
EndChar

StartChar: R
Encoding: 82 82 15
Width: 853
Flags: HW
LayerCount: 2
Fore
SplineSet
92 762 m 0
 136 768 179 772 227 772 c 0
 267 772 312 769 367 765 c 0
 480 756 536 731 571 672 c 0
 589 643 598 613 598 584 c 0
 598 525 564 470 499 441 c 0
 494 439 441 415 441 407 c 0
 441 400 452 383 468 365 c 0
 485 345 521 295 546 256 c 0
 633 121 652 96 690 67 c 0
 712 51 746 33 767 26 c 0
 825 8 846 -5 846 -14 c 0
 846 -28 797 -33 755 -33 c 0
 741 -33 727 -32 716 -31 c 0
 609 -22 540 20 482 141 c 0
 446 217 381 332 362 355 c 0
 353 365 335 371 311 371 c 0
 271 371 257 358 257 281 c 0
 257 259 258 230 260 196 c 0
 267 74 267 73 294 59 c 0
 308 52 332 45 345 45 c 0
 364 45 374 41 374 33 c 0
 374 28 370 21 362 14 c 0
 350 3 313 -2 215 -5 c 0
 176 -7 144 -7 119 -7 c 0
 52 -7 34 -1 28 14 c 0
 27 16 27 18 27 20 c 0
 27 38 60 64 87 64 c 0
 98 64 114 73 123 82 c 0
 132 92 136 98 136 176 c 0
 136 245 133 367 127 593 c 0
 126 628 121 662 115 668 c 0
 109 674 83 681 57 685 c 0
 20 691 10 696 8 712 c 0
 8 714 7 717 7 719 c 0
 7 743 28 753 92 762 c 0
388 689 m 0
 367 700 346 706 327 706 c 0
 305 706 284 699 269 683 c 0
 248 662 245 652 245 585 c 0
 246 495 257 429 274 418 c 0
 279 414 291 413 303 413 c 0
 334 413 379 424 399 438 c 0
 412 447 432 472 444 496 c 0
 457 520 463 546 463 570 c 0
 463 619 436 665 388 689 c 0
EndSplineSet
Validated: 1
EndChar

StartChar: P
Encoding: 80 80 16
Width: 601
Flags: HW
LayerCount: 2
Fore
SplineSet
163 769 m 0
 188 770 214 770 239 770 c 0
 345 770 442 765 464 756 c 0
 540 727 586 653 586 566 c 0
 586 544 583 522 577 499 c 0
 549 389 489 343 364 343 c 0
 358 343 351 344 345 344 c 0
 327 345 313 345 302 345 c 0
 266 345 260 341 247 324 c 0
 236 310 232 301 232 271 c 0
 232 255 233 234 235 202 c 0
 242 92 248 79 302 63 c 0
 335 54 351 44 351 31 c 0
 351 23 345 13 333 2 c 0
 317 -13 308 -18 291 -18 c 0
 285 -18 277 -17 267 -16 c 0
 245 -13 188 -11 139 -11 c 0
 61 -11 47 -8 32 7 c 0
 21 18 15 26 15 32 c 0
 15 41 27 49 53 60 c 0
 90 76 93 79 98 121 c 0
 103 158 105 276 105 393 c 0
 105 521 102 646 97 659 c 0
 92 673 75 691 60 703 c 0
 42 715 32 729 32 741 c 0
 32 751 38 759 52 762 c 0
 63 765 113 767 163 769 c 0
408 699 m 0
 391 711 349 718 316 718 c 0
 301 718 288 716 280 713 c 0
 242 697 233 675 227 586 c 0
 226 568 225 552 225 537 c 0
 225 456 242 410 275 396 c 0
 286 392 298 390 312 390 c 0
 343 390 378 400 410 421 c 0
 450 446 460 468 470 546 c 0
 472 557 472 567 472 575 c 0
 472 596 467 611 453 639 c 0
 439 664 420 692 408 699 c 0
EndSplineSet
Validated: 1
EndChar

StartChar: Q
Encoding: 81 81 17
Width: 846
Flags: HW
LayerCount: 2
Fore
SplineSet
262 745 m 0
 308 761 353 769 405 769 c 0
 439 769 477 766 520 759 c 0
 607 745 628 735 710 666 c 0
 786 601 825 531 825 457 c 0
 825 448 824 440 823 431 c 0
 798 223 794 209 706 120 c 0
 674 86 647 54 647 48 c 0
 647 31 674 11 737 -17 c 0
 767 -31 812 -55 837 -70 c 0
 862 -86 907 -106 937 -116 c 0
 967 -126 999 -138 1007 -143 c 0
 1015 -148 1039 -159 1060 -168 c 0
 1069 -174 1074 -181 1074 -186 c 0
 1074 -208 1006 -222 974 -222 c 0
 969 -222 964 -222 961 -221 c 0
 936 -214 931 -214 914 -206 c 0
 896 -198 853 -181 817 -167 c 0
 781 -154 716 -129 672 -111 c 0
 554 -64 470 -36 386 -16 c 0
 251 16 122 100 59 195 c 0
 28 241 22 261 14 340 c 0
 11 372 9 401 9 425 c 0
 9 509 31 555 92 621 c 0
 162 698 195 722 262 745 c 0
545 670 m 0
 504 692 483 699 441 699 c 0
 438 699 435 699 432 699 c 0
 354 698 322 688 263 644 c 0
 227 618 207 592 185 547 c 0
 159 492 156 474 156 392 c 0
 156 310 159 291 186 234 c 0
 227 146 264 107 338 73 c 0
 389 50 416 44 472 44 c 0
 533 44 547 48 578 72 c 0
 659 134 697 225 697 358 c 0
 697 508 646 611 545 670 c 0
EndSplineSet
Validated: 1
EndChar

StartChar: T
Encoding: 84 84 18
Width: 820
Flags: HW
LayerCount: 2
Fore
SplineSet
51 759 m 0
 59 766 72 771 80 771 c 0
 82 771 84 770 85 770 c 0
 146 751 291 740 440 740 c 0
 507 740 575 742 636 747 c 0
 693 752 731 754 756 754 c 0
 779 754 790 752 794 748 c 0
 800 742 806 712 808 679 c 0
 809 670 809 662 809 655 c 0
 809 621 803 605 789 605 c 0
 780 605 769 611 754 622 c 0
 736 634 711 651 698 658 c 0
 680 668 619 675 572 675 c 0
 542 675 518 672 512 666 c 0
 486 640 477 563 477 371 c 0
 477 362 477 352 477 343 c 0
 478 226 479 122 481 114 c 0
 484 106 506 86 531 68 c 0
 557 50 573 39 573 31 c 0
 573 22 569 17 561 10 c 0
 548 -2 519 -5 407 -6 c 0
 379 -6 357 -7 339 -7 c 0
 274 -7 265 -4 251 10 c 0
 242 19 238 26 238 33 c 0
 238 45 252 55 285 69 c 0
 307 78 325 91 330 98 c 0
 339 113 353 395 353 528 c 0
 353 548 353 565 352 577 c 0
 349 622 345 658 338 665 c 0
 331 672 290 677 248 677 c 0
 217 677 186 675 167 670 c 0
 153 666 122 646 99 626 c 0
 70 601 55 590 42 590 c 0
 35 590 28 594 22 600 c 0
 14 608 11 624 11 643 c 0
 11 684 27 738 51 759 c 0
EndSplineSet
Validated: 1
EndChar

StartChar: S
Encoding: 83 83 19
Width: 460
Flags: HW
LayerCount: 2
Fore
SplineSet
166 755 m 0
 186 763 216 766 247 766 c 0
 297 766 352 757 386 741 c 0
 420 725 426 716 431 687 c 0
 434 668 439 645 440 637 c 0
 441 634 441 632 441 629 c 0
 441 609 426 591 408 591 c 0
 398 591 382 605 370 627 c 0
 345 671 307 694 264 694 c 0
 244 694 222 689 201 678 c 0
 177 667 165 651 156 624 c 0
 151 609 148 595 148 582 c 0
 148 538 182 503 272 443 c 0
 366 382 434 311 442 264 c 0
 445 249 446 233 446 217 c 0
 446 166 434 112 413 82 c 0
 370 20 320 -6 233 -11 c 0
 221 -12 211 -12 200 -12 c 0
 129 -12 82 3 48 33 c 0
 22 57 19 65 18 117 c 0
 18 120 18 124 18 127 c 0
 18 156 22 180 28 186 c 0
 33 191 40 194 47 194 c 0
 65 194 87 179 96 155 c 0
 102 138 110 115 115 104 c 0
 125 78 169 58 208 58 c 0
 214 58 220 58 225 59 c 0
 268 67 320 112 330 151 c 0
 333 161 335 171 335 180 c 0
 335 224 299 260 200 324 c 0
 102 388 34 453 20 495 c 0
 16 507 14 524 14 542 c 0
 14 579 22 623 35 649 c 0
 54 685 120 738 166 755 c 0
EndSplineSet
Validated: 1
EndChar

StartChar: U
Encoding: 85 85 20
Width: 955
Flags: HW
LayerCount: 2
Fore
SplineSet
645 766 m 0
 653 767 678 768 711 768 c 0
 734 768 762 767 789 767 c 0
 886 765 910 763 924 750 c 0
 936 739 943 729 943 721 c 0
 943 709 927 701 895 698 c 0
 822 691 820 687 812 509 c 0
 798 220 784 160 714 87 c 0
 648 19 566 -14 463 -14 c 0
 446 -14 427 -13 409 -11 c 0
 348 -5 328 1 286 28 c 0
 217 73 190 100 164 152 c 0
 134 214 131 231 121 459 c 0
 111 666 105 691 66 691 c 0
 58 691 41 699 29 708 c 0
 17 717 12 721 12 726 c 0
 12 730 17 734 26 743 c 0
 40 757 53 760 151 760 c 0
 166 760 183 760 202 760 c 0
 338 760 362 757 375 744 c 0
 382 737 385 731 385 725 c 0
 385 710 363 700 327 700 c 0
 298 700 281 694 268 681 c 0
 254 667 253 662 253 568 c 0
 253 554 253 537 253 518 c 0
 253 274 280 175 362 112 c 0
 400 83 404 73 470 73 c 0
 573 73 644 101 673 154 c 0
 679 165 693 200 703 231 c 0
 720 280 723 320 727 481 c 0
 728 528 729 565 729 594 c 0
 729 696 718 700 675 700 c 0
 656 700 633 706 624 712 c 0
 615 718 612 727 612 735 c 0
 612 750 624 764 645 766 c 0
EndSplineSet
Validated: 1
EndChar

StartChar: V
Encoding: 86 86 21
Width: 840
Flags: HW
LayerCount: 2
Fore
SplineSet
657 767 m 0
 711 768 765 771 776 772 c 0
 777 772 777 772 778 772 c 0
 790 772 807 765 819 755 c 0
 826 748 830 741 830 733 c 0
 830 727 828 720 824 712 c 0
 807 685 802 684 759 674 c 0
 737 669 728 653 694 574 c 0
 672 522 648 467 641 451 c 0
 591 339 508 133 495 86 c 0
 476 18 457 -14 435 -14 c 0
 434 -14 432 -14 431 -14 c 0
 409 -10 393 17 367 95 c 0
 357 127 332 190 312 235 c 0
 293 280 266 344 252 379 c 0
 232 431 128 655 119 667 c 0
 118 668 93 672 65 676 c 0
 23 681 13 686 11 702 c 0
 10 705 10 709 10 712 c 0
 10 743 39 752 136 756 c 0
 165 757 192 758 216 758 c 0
 307 758 355 748 355 729 c 0
 355 720 345 709 323 696 c 0
 300 683 290 672 290 652 c 0
 290 635 298 612 312 576 c 0
 325 544 349 484 364 442 c 0
 446 223 446 220 469 220 c 0
 470 220 470 220 471 220 c 0
 498 220 512 252 553 408 c 0
 566 458 591 526 606 559 c 0
 627 605 636 639 636 671 c 0
 636 675 636 680 636 684 c 0
 635 691 618 700 599 706 c 0
 558 717 542 725 542 736 c 0
 542 740 543 744 547 749 c 0
 557 760 584 764 657 767 c 0
EndSplineSet
Validated: 1
EndChar

StartChar: W
Encoding: 87 87 22
Width: 1156
Flags: HW
LayerCount: 2
Fore
SplineSet
533 759 m 0
 575 761 607 762 631 762 c 0
 678 762 697 758 705 750 c 0
 709 746 710 741 710 737 c 0
 710 723 693 707 667 701 c 0
 641 695 638 689 638 662 c 0
 638 609 715 338 750 270 c 0
 761 247 771 235 781 235 c 0
 800 235 822 278 853 374 c 0
 870 426 901 514 922 569 c 0
 943 621 954 651 954 670 c 0
 954 692 939 699 910 707 c 0
 877 716 861 727 861 739 c 0
 861 743 863 748 867 753 c 0
 875 762 919 767 970 767 c 0
 1014 767 1064 764 1097 756 c 0
 1133 748 1141 744 1141 730 c 0
 1141 728 1141 725 1141 722 c 0
 1139 705 1129 696 1097 686 c 0
 1062 674 1055 667 1035 621 c 0
 1007 557 931 368 904 295 c 0
 893 265 875 221 862 199 c 0
 849 176 836 140 830 117 c 0
 817 54 795 10 770 -3 c 0
 763 -7 756 -9 750 -9 c 0
 734 -9 723 3 716 27 c 0
 703 71 652 237 620 336 c 0
 592 421 583 442 567 444 c 0
 566 444 566 444 565 444 c 0
 551 444 541 430 515 378 c 0
 497 339 482 303 482 297 c 0
 482 291 474 270 464 251 c 0
 453 232 435 182 421 141 c 0
 393 47 378 19 353 6 c 0
 347 2 341 1 335 1 c 0
 312 1 293 27 279 76 c 0
 242 204 171 433 155 469 c 0
 150 479 133 524 120 569 c 0
 96 648 81 674 33 704 c 0
 21 712 15 715 15 720 c 0
 15 724 19 730 27 739 c 0
 44 756 54 758 168 758 c 0
 283 758 290 757 290 740 c 0
 290 728 279 719 257 712 c 0
 231 704 220 691 220 668 c 0
 220 656 223 640 230 621 c 0
 237 599 244 574 244 566 c 0
 244 559 252 532 261 506 c 0
 271 481 297 405 318 338 c 0
 347 244 362 209 379 209 c 0
 384 209 389 212 395 218 c 0
 407 230 456 341 472 391 c 0
 477 404 492 441 509 475 c 0
 527 514 536 549 536 578 c 0
 536 624 513 659 467 687 c 0
 438 704 428 714 428 728 c 0
 428 730 429 731 429 733 c 0
 432 752 438 753 533 759 c 0
EndSplineSet
Validated: 1
EndChar

StartChar: X
Encoding: 88 88 23
Width: 763
Flags: HW
LayerCount: 2
Fore
SplineSet
46 746 m 0
 53 753 59 757 69 757 c 0
 73 757 78 756 84 755 c 0
 96 752 135 750 176 750 c 0
 182 750 188 750 194 750 c 0
 204 750 212 750 220 750 c 0
 273 750 284 747 305 733 c 0
 322 722 332 708 332 697 c 0
 332 677 319 675 295 628 c 0
 291 620 288 613 288 606 c 0
 288 590 301 572 336 527 c 0
 366 488 371 483 401 483 c 0
 433 483 436 486 469 538 c 0
 491 573 502 596 502 613 c 0
 502 629 492 640 474 652 c 0
 451 667 440 685 440 702 c 0
 440 711 444 720 451 728 c 0
 464 741 481 743 560 745 c 0
 582 745 600 746 615 746 c 0
 659 746 673 743 694 734 c 0
 712 727 715 718 715 707 c 0
 715 702 714 697 714 691 c 0
 714 685 692 666 664 650 c 0
 613 622 589 599 523 515 c 0
 490 473 461 427 461 401 c 0
 461 398 461 396 462 394 c 0
 473 353 505 331 538 294 c 0
 548 283 580 248 608 213 c 0
 636 178 679 135 703 116 c 0
 727 98 747 77 748 70 c 0
 748 66 749 63 749 59 c 0
 749 38 745 15 739 12 c 0
 735 10 695 9 647 9 c 0
 569 9 470 12 463 16 c 0
 457 20 455 26 455 34 c 0
 455 46 460 62 471 77 c 0
 480 89 485 102 485 116 c 0
 485 142 468 171 432 209 c 0
 402 241 383 256 366 256 c 0
 350 256 335 243 314 215 c 0
 287 178 274 148 274 124 c 0
 274 102 286 84 310 72 c 0
 338 59 361 35 361 21 c 0
 361 20 360 18 360 17 c 0
 358 12 332 8 303 6 c 0
 223 4 260 -9 148 -11 c 0
 68 -11 48 -3 48 29 c 0
 47 34 47 38 47 43 c 0
 47 64 56 86 102 102 c 0
 127 111 171 138 242 223 c 0
 283 273 316 319 316 326 c 0
 316 334 298 361 277 385 c 0
 256 410 221 452 201 479 c 0
 81 636 14 614 14 647 c 0
 14 665 14 708 46 746 c 0
EndSplineSet
Validated: 1
EndChar

StartChar: Y
Encoding: 89 89 24
Width: 823
Flags: HW
LayerCount: 2
Fore
SplineSet
27 762 m 0
 34 765 67 766 109 766 c 0
 198 766 329 760 346 754 c 0
 359 749 365 742 365 734 c 0
 365 724 354 713 333 708 c 0
 311 703 299 694 299 675 c 0
 299 646 327 595 388 500 c 0
 418 453 433 436 450 436 c 0
 456 436 461 438 468 441 c 0
 494 452 596 645 596 680 c 0
 596 692 561 706 558 707 c 0
 535 716 524 727 524 737 c 0
 524 754 554 768 598 768 c 0
 608 768 619 767 631 765 c 0
 644 763 661 762 678 762 c 0
 691 762 705 764 715 765 c 0
 725 766 735 766 744 766 c 0
 786 766 812 754 812 733 c 0
 812 718 804 709 782 700 c 0
 766 694 745 688 737 688 c 0
 714 688 645 612 583 523 c 0
 554 482 524 440 515 430 c 0
 496 409 483 310 483 186 c 0
 483 91 492 64 529 51 c 0
 552 43 563 33 563 23 c 0
 563 13 551 4 526 -2 c 0
 509 -6 456 -8 403 -8 c 0
 339 -8 273 -5 265 -0 c 0
 258 4 255 12 255 21 c 0
 255 30 259 39 266 45 c 0
 272 50 293 58 313 63 c 0
 332 67 351 72 354 75 c 0
 357 78 358 105 358 141 c 0
 358 211 353 313 347 333 c 0
 338 362 299 428 269 469 c 0
 261 481 238 514 219 544 c 0
 173 616 119 679 106 679 c 0
 100 679 87 683 79 686 c 0
 71 690 54 699 40 706 c 0
 22 715 11 729 11 742 c 0
 11 751 16 758 27 762 c 0
EndSplineSet
Validated: 1
EndChar

StartChar: Z
Encoding: 90 90 25
Width: 986
Flags: HW
LayerCount: 2
Fore
SplineSet
281 766 m 0
 308 771 331 772 354 772 c 0
 392 772 429 768 485 768 c 0
 490 768 495 768 501 768 c 0
 528 768 551 769 572 769 c 0
 701 769 725 763 771 762 c 0
 776 762 782 761 788 761 c 0
 813 761 843 763 866 766 c 0
 881 768 895 769 907 769 c 0
 921 769 973 768 973 734 c 0
 973 723 967 716 952 709 c 0
 940 702 923 689 915 680 c 0
 907 671 890 660 878 655 c 0
 866 649 826 612 790 572 c 0
 703 473 720 501 670 458 c 0
 620 415 594 388 496 311 c 0
 398 234 370 224 274 140 c 0
 241 112 223 95 223 83 c 0
 223 64 272 63 390 63 c 0
 396 63 403 63 410 63 c 0
 514 63 634 66 704 154 c 0
 718 174 729 194 729 201 c 0
 729 225 753 260 772 265 c 0
 777 266 780 266 784 266 c 0
 801 266 811 254 811 229 c 0
 811 206 803 172 788 129 c 0
 753 29 733 4 678 -3 c 0
 654 -6 621 -8 603 -8 c 0
 585 -8 480 -7 370 -5 c 0
 336 -5 306 -4 281 -4 c 0
 170 -4 138 -10 107 -25 c 0
 98 -30 86 -32 75 -32 c 0
 58 -32 41 -26 33 -17 c 0
 26 -10 18 11 16 29 c 0
 14 37 13 44 13 50 c 0
 13 63 17 73 27 85 c 0
 37 97 49 107 55 107 c 0
 61 107 83 120 103 136 c 0
 123 152 144 164 148 164 c 0
 153 164 174 181 194 201 c 0
 215 221 234 238 238 238 c 0
 241 238 278 274 320 319 c 0
 362 364 399 401 404 401 c 0
 415 401 559 523 682 639 c 0
 694 650 700 661 700 669 c 0
 700 679 691 688 673 692 c 0
 662 694 641 700 629 705 c 0
 618 709 594 711 567 711 c 0
 503 711 414 701 388 687 c 0
 332 658 307 615 296 582 c 0
 290 563 279 557 266 557 c 0
 254 557 241 562 225 566 c 0
 209 568 204 570 204 586 c 0
 204 589 204 593 204 597 c 0
 206 639 214 670 237 718 c 0
 253 752 262 762 281 766 c 0
EndSplineSet
Validated: 1
EndChar

StartChar: a
Encoding: 97 97 26
Width: 379
Flags: HW
LayerCount: 2
Fore
SplineSet
180 481 m 4
 188 484 195 484 205 484 c 4
 225 484 246 480 260 470 c 4
 270 463 284 443 292 426 c 4
 303 402 306 390 306 324 c 4
 306 309 306 290 306 268 c 4
 306 246 305 228 305 212 c 4
 305 132 310 123 340 85 c 4
 352 70 357 63 357 54 c 4
 357 50 356 46 354 41 c 4
 350 31 337 16 322 8 c 4
 310 1 304 -2 297 -2 c 4
 290 -2 283 1 268 10 c 4
 250 20 235 25 220 25 c 4
 206 25 190 21 169 11 c 4
 153 3 137 1 123 1 c 4
 91 1 64 19 45 55 c 4
 38 67 35 85 35 104 c 4
 35 128 39 153 49 168 c 4
 67 196 77 202 151 223 c 4
 222 242 235 254 235 304 c 4
 235 349 224 370 193 386 c 4
 182 393 174 396 167 396 c 4
 161 396 156 394 148 390 c 4
 137 384 124 371 118 360 c 4
 103 327 85 309 66 309 c 4
 56 309 47 314 37 324 c 4
 27 333 22 337 22 344 c 4
 22 354 35 368 72 409 c 4
 104 445 140 468 180 481 c 4
224 179 m 4
 217 186 205 191 195 191 c 4
 168 190 119 167 116 152 c 4
 115 148 115 145 115 141 c 4
 115 109 148 81 180 81 c 4
 191 81 203 84 213 93 c 4
 225 103 233 129 233 150 c 4
 233 162 230 173 224 179 c 4
EndSplineSet
Validated: 1
EndChar

StartChar: b
Encoding: 98 98 27
Width: 544
Flags: HW
LayerCount: 2
Fore
SplineSet
102 767 m 4
 121 775 137 780 148 780 c 4
 171 780 177 759 177 699 c 4
 177 676 177 647 175 612 c 4
 173 568 172 528 172 500 c 4
 172 482 172 470 173 466 c 4
 177 449 187 441 203 441 c 4
 212 441 224 443 237 448 c 4
 260 456 284 459 309 459 c 4
 337 459 364 455 383 445 c 4
 414 430 456 384 476 348 c 4
 493 316 501 278 501 239 c 4
 501 151 460 59 394 25 c 4
 353 6 311 1 269 1 c 4
 239 1 208 4 177 7 c 4
 125 11 79 16 75 20 c 4
 69 26 68 40 68 105 c 4
 68 137 69 181 70 243 c 4
 72 364 79 452 93 508 c 4
 97 522 99 540 99 559 c 4
 99 569 98 578 97 588 c 4
 93 626 88 638 67 666 c 4
 51 687 43 703 43 716 c 4
 43 736 61 751 102 767 c 4
297 394 m 4
 283 398 255 403 235 405 c 4
 225 406 219 407 213 407 c 4
 200 407 193 402 183 391 c 4
 162 368 155 332 155 240 c 4
 155 141 161 107 187 87 c 4
 210 69 234 59 259 59 c 4
 288 59 317 71 345 96 c 4
 384 132 395 157 399 223 c 4
 400 237 400 247 400 256 c 4
 400 282 396 291 382 317 c 4
 358 361 332 384 297 394 c 4
EndSplineSet
Validated: 1
EndChar

StartChar: c
Encoding: 99 99 28
Width: 427
Flags: HW
LayerCount: 2
Fore
SplineSet
213 472 m 4
 241 482 261 486 291 486 c 4
 296 486 300 486 306 486 c 4
 352 485 359 482 374 465 c 4
 385 452 391 435 391 419 c 4
 391 403 385 389 374 381 c 4
 367 377 363 374 357 374 c 4
 348 374 337 379 310 391 c 4
 282 403 261 411 240 411 c 4
 218 411 199 403 179 388 c 4
 149 365 137 331 136 262 c 4
 136 187 158 137 206 105 c 4
 234 86 243 84 278 84 c 4
 283 84 287 84 293 84 c 4
 311 85 325 85 335 85 c 4
 367 85 370 83 370 74 c 4
 370 63 337 32 323 24 c 4
 309 16 289 11 261 6 c 4
 244 3 228 0 215 -0 c 4
 179 0 151 12 116 40 c 4
 64 81 43 122 37 196 c 4
 36 209 36 223 36 234 c 4
 36 281 47 308 79 364 c 4
 113 423 144 446 213 472 c 4
EndSplineSet
Validated: 1
EndChar

StartChar: d
Encoding: 100 100 29
Width: 562
Flags: HW
LayerCount: 2
Fore
SplineSet
354 761 m 0
 395 774 414 777 425 777 c 0
 438 777 446 773 457 761 c 0
 465 753 468 748 468 730 c 0
 468 715 466 694 466 691 c 0
 457 600 453 377 453 241 c 0
 453 173 454 125 458 101 c 0
 460 85 463 84 477 77 c 0
 499 65 513 55 515 50 c 0
 516 48 516 46 516 46 c 1
 516 29 500 12 469 -1 c 0
 452 -8 436 -11 422 -11 c 0
 404 -11 389 -6 373 7 c 0
 363 16 352 22 339 22 c 0
 330 22 319 19 310 15 c 0
 289 5 262 2 232 2 c 0
 202 2 172 5 142 19 c 0
 100 40 71 78 54 148 c 0
 49 170 46 192 46 214 c 0
 46 257 58 296 85 341 c 0
 114 390 142 415 210 448 c 0
 221 453 231 458 251 458 c 0
 263 458 274 456 289 455 c 0
 302 454 314 454 314 454 c 2
 367 454 367 472 367 472 c 1
 367 568 367 574 367 579 c 0
 367 642 367 644 361 652 c 0
 331 696 320 720 320 738 c 0
 320 748 323 751 354 761 c 0
318 378 m 0
 300 392 275 400 252 400 c 0
 238 400 224 397 203 386 c 0
 181 374 173 365 153 315 c 0
 138 278 132 257 132 238 c 0
 132 217 139 196 149 173 c 0
 169 125 186 106 225 89 c 0
 251 78 277 72 299 72 c 0
 329 72 352 83 360 102 c 0
 367 117 369 148 369 181 c 0
 369 246 361 321 349 343 c 0
 344 354 330 369 318 378 c 0
EndSplineSet
Validated: 1
EndChar

StartChar: e
Encoding: 101 101 30
Width: 385
Flags: HW
LayerCount: 2
Fore
SplineSet
161 478 m 4
 172 483 187 484 202 484 c 4
 225 484 251 480 275 470 c 4
 328 448 359 400 359 346 c 4
 359 335 357 321 354 310 c 4
 348 290 344 285 333 284 c 4
 328 284 302 284 269 284 c 4
 253 284 235 284 216 284 c 4
 202 284 188 285 178 285 c 4
 119 285 113 281 107 271 c 4
 102 262 101 252 101 240 c 4
 101 210 113 171 135 143 c 4
 154 117 190 103 227 103 c 4
 251 103 274 109 297 120 c 4
 311 128 323 131 331 131 c 4
 343 131 348 122 348 102 c 4
 348 88 340 74 315 47 c 4
 286 17 273 11 238 3 c 4
 223 0 209 -2 195 -2 c 4
 124 -2 68 38 48 107 c 4
 41 129 35 153 31 163 c 4
 27 173 26 196 26 223 c 4
 26 255 28 292 33 318 c 4
 45 381 108 456 161 478 c 4
256 400 m 4
 247 408 234 411 220 411 c 4
 189 411 150 394 140 370 c 4
 136 360 134 353 134 347 c 4
 134 337 142 333 163 333 c 4
 171 333 180 333 192 334 c 4
 220 337 249 342 256 346 c 4
 264 350 267 360 267 370 c 4
 267 381 264 392 256 400 c 4
EndSplineSet
Validated: 1
EndChar

StartChar: f
Encoding: 102 102 31
Width: 376
Flags: HW
LayerCount: 2
Fore
SplineSet
310 814 m 0
 330 818 346 819 363 819 c 0
 397 819 432 815 448 807 c 0
 473 794 501 747 501 725 c 0
 501 717 497 703 488 687 c 0
 481 674 476 670 456 670 c 0
 431 670 420 676 405 691 c 0
 375 721 340 735 307 735 c 0
 294 735 279 733 268 728 c 0
 230 711 211 657 202 562 c 0
 200 537 200 526 200 526 c 2
 200 457 223 440 278 433 c 0
 306 429 343 421 343 401 c 0
 343 386 323 382 264 375 c 0
 229 371 206 367 203 363 c 0
 200 358 198 306 198 264 c 0
 198 234 197 225 197 198 c 0
 197 111 207 87 245 65 c 0
 267 52 270 44 270 24 c 2
 270 23 l 2
 270 1 269 0 187 -0 c 0
 180 0 173 0 166 0 c 0
 71 0 55 1 32 16 c 0
 21 23 14 29 14 36 c 0
 14 44 22 51 42 64 c 0
 92 96 89 85 90 199 c 0
 91 271 91 312 91 330 c 0
 91 348 91 357 91 359 c 0
 90 364 76 373 59 381 c 0
 40 389 25 399 25 403 c 0
 25 407 40 417 57 426 c 0
 95 448 105 468 105 520 c 0
 105 553 109 595 118 632 c 0
 126 664 134 677 163 710 c 0
 223 780 259 803 310 814 c 0
EndSplineSet
Validated: 1
EndChar

StartChar: g
Encoding: 103 103 32
Width: 459
Flags: HW
LayerCount: 2
Fore
SplineSet
141 480 m 4
 163 487 187 491 214 491 c 4
 250 491 292 484 341 472 c 4
 383 462 424 453 431 453 c 4
 441 453 445 447 448 427 c 4
 449 419 450 414 450 409 c 4
 450 394 443 389 423 380 c 4
 406 373 401 366 395 338 c 4
 391 319 387 299 387 293 c 4
 387 286 380 267 370 251 c 4
 356 228 344 218 313 203 c 4
 282 188 271 185 227 185 c 4
 221 185 214 185 207 185 c 4
 200 185 194 185 188 185 c 4
 131 185 117 182 117 161 c 4
 117 157 118 151 119 146 c 4
 126 99 132 95 249 87 c 4
 348 80 349 76 373 58 c 4
 407 31 425 -11 425 -57 c 4
 425 -78 422 -99 414 -121 c 4
 397 -171 342 -224 291 -242 c 4
 265 -251 214 -257 169 -257 c 4
 144 -257 121 -255 104 -252 c 4
 44 -239 9 -191 9 -122 c 4
 9 -96 12 -88 34 -64 c 4
 48 -49 69 -32 80 -28 c 4
 92 -23 97 -19 97 -12 c 4
 97 -10 96 -7 95 -4 c 4
 93 5 75 27 56 45 c 4
 25 75 22 81 22 104 c 4
 22 134 27 142 65 166 c 4
 80 176 92 188 92 192 c 4
 92 196 83 217 72 236 c 4
 46 280 35 303 35 329 c 4
 35 344 38 360 45 382 c 4
 58 425 97 465 141 480 c 4
265 418 m 4
 248 426 234 431 222 431 c 4
 218 431 215 430 211 429 c 4
 160 418 137 387 137 325 c 4
 137 263 158 228 200 216 c 4
 205 214 209 214 213 214 c 4
 223 214 232 218 250 230 c 4
 288 256 304 285 304 331 c 4
 304 373 288 408 265 418 c 4
315 -16 m 4
 308 -12 274 -7 235 -6 c 4
 225 -6 215 -5 207 -5 c 4
 124 -5 105 -24 105 -88 c 4
 105 -149 136 -177 217 -190 c 4
 232 -192 241 -194 249 -194 c 4
 261 -194 268 -190 282 -181 c 4
 331 -151 354 -124 354 -93 c 4
 354 -80 350 -67 342 -52 c 4
 334 -37 322 -20 315 -16 c 4
EndSplineSet
Validated: 1
EndChar

StartChar: h
Encoding: 104 104 33
Width: 541
Flags: HW
LayerCount: 2
Fore
SplineSet
106 789 m 4
 119 794 133 796 144 796 c 4
 163 796 177 790 186 780 c 4
 193 772 197 763 197 727 c 4
 197 702 195 664 193 602 c 4
 191 543 189 506 189 480 c 4
 189 443 192 433 198 428 c 4
 202 424 204 423 208 423 c 4
 214 423 224 428 241 439 c 4
 269 458 290 465 317 465 c 4
 329 465 341 464 356 461 c 4
 387 455 400 448 420 428 c 4
 453 393 459 360 463 199 c 4
 464 129 466 70 466 69 c 4
 467 68 477 63 490 54 c 4
 506 44 514 31 514 20 c 4
 514 11 510 5 501 -0 c 4
 493 -4 461 -7 427 -7 c 4
 397 -7 364 -5 352 -1 c 4
 343 1 332 10 326 19 c 4
 323 24 320 26 320 30 c 4
 320 36 326 42 341 55 c 4
 354 67 370 85 374 95 c 4
 378 105 379 157 379 212 c 4
 378 334 370 362 325 385 c 4
 306 395 266 402 237 402 c 4
 221 402 208 399 204 395 c 4
 189 377 182 334 182 218 c 4
 182 120 183 89 192 74 c 4
 198 63 206 54 212 54 c 4
 217 54 226 49 234 40 c 4
 240 33 242 29 242 26 c 4
 242 22 239 19 230 12 c 4
 217 2 203 0 136 -0 c 4
 65 0 56 1 42 14 c 4
 32 24 27 33 27 40 c 4
 27 45 29 47 35 47 c 4
 56 47 81 79 88 113 c 4
 92 132 95 266 98 411 c 4
 99 492 100 547 100 587 c 4
 100 677 95 683 81 703 c 4
 67 722 60 737 60 749 c 4
 60 767 76 779 106 789 c 4
EndSplineSet
Validated: 1
EndChar

StartChar: j
Encoding: 106 106 34
Width: 202
Flags: HW
LayerCount: 2
Fore
SplineSet
71 779 m 4
 84 788 96 792 107 792 c 4
 121 792 136 785 149 773 c 4
 167 757 169 750 169 727 c 4
 169 704 167 696 149 680 c 4
 135 668 119 661 104 661 c 4
 90 661 75 667 61 677 c 4
 43 688 37 696 36 715 c 4
 36 718 36 721 36 724 c 4
 36 749 47 765 71 779 c 4
97 465 m 4
 118 473 131 476 141 476 c 4
 151 476 159 472 169 463 c 4
 181 453 186 451 186 430 c 4
 186 420 185 407 184 387 c 4
 182 352 178 250 176 160 c 4
 173 -10 169 -42 142 -95 c 4
 120 -139 52 -208 25 -214 c 4
 20 -215 17 -216 14 -216 c 4
 4 -216 -1 -210 -10 -198 c 4
 -17 -188 -20 -184 -20 -177 c 4
 -20 -171 -18 -165 -13 -154 c 4
 -7 -140 11 -115 26 -99 c 4
 42 -82 57 -56 61 -43 c 4
 73 4 81 99 83 219 c 4
 83 240 84 257 84 271 c 4
 84 337 79 343 55 371 c 4
 38 391 30 406 30 418 c 4
 30 437 50 450 97 465 c 4
EndSplineSet
Validated: 1
EndChar

StartChar: i
Encoding: 105 105 35
Width: 274
Flags: HW
LayerCount: 2
Fore
SplineSet
126 781 m 4
 136 786 146 787 156 787 c 4
 192 787 220 757 220 727 c 4
 220 711 212 694 193 682 c 4
 178 672 162 667 149 667 c 4
 134 667 120 673 108 685 c 4
 95 698 88 713 88 728 c 4
 88 749 101 770 126 781 c 4
100 477 m 4
 128 483 149 485 167 485 c 4
 178 485 189 484 199 481 c 4
 209 478 212 478 212 460 c 4
 212 450 211 435 209 412 c 4
 206 376 204 293 204 227 c 4
 204 99 212 72 241 62 c 4
 251 59 255 51 255 38 c 4
 255 22 249 16 232 8 c 4
 219 2 188 1 154 1 c 4
 92 1 19 9 19 19 c 4
 19 29 42 56 70 73 c 4
 98 90 105 124 106 247 c 4
 106 260 106 271 106 281 c 4
 106 349 102 357 91 379 c 4
 82 394 71 413 62 420 c 4
 52 429 47 436 47 444 c 4
 47 458 65 469 100 477 c 4
EndSplineSet
Validated: 1
EndChar

StartChar: k
Encoding: 107 107 36
Width: 502
Flags: HW
LayerCount: 2
Fore
SplineSet
93 765 m 4
 128 777 148 788 159 788 c 4
 169 788 171 781 171 758 c 4
 171 735 168 698 166 640 c 4
 162 542 161 459 161 402 c 4
 161 356 162 329 165 322 c 4
 168 315 190 288 200 288 c 4
 214 288 229 300 263 336 c 4
 289 362 310 389 310 396 c 4
 310 403 299 416 288 426 c 4
 276 436 270 442 270 447 c 4
 270 450 272 452 274 455 c 4
 283 465 304 470 394 481 c 4
 407 483 418 483 428 483 c 4
 443 483 455 481 465 476 c 4
 478 470 488 465 488 461 c 4
 488 451 464 434 426 417 c 4
 380 397 289 313 289 292 c 4
 289 276 320 225 356 179 c 4
 369 162 389 134 399 115 c 4
 410 93 428 71 446 60 c 4
 468 46 480 29 480 17 c 4
 480 12 478 8 475 5 c 4
 470 0 436 -4 395 -5 c 4
 378 -6 365 -6 355 -6 c 4
 327 -6 316 -4 303 6 c 4
 291 15 286 19 286 27 c 4
 286 31 288 36 290 43 c 4
 294 57 296 71 296 82 c 4
 296 99 292 115 283 125 c 4
 276 134 265 154 256 170 c 4
 241 200 225 213 201 213 c 4
 185 213 179 196 179 158 c 4
 179 102 187 73 211 48 c 4
 224 35 231 24 231 16 c 4
 231 14 231 13 230 12 c 4
 226 2 214 1 131 1 c 4
 60 1 36 2 29 10 c 4
 26 14 25 17 25 22 c 4
 25 32 34 43 49 52 c 4
 59 58 69 64 75 68 c 4
 85 75 92 145 92 217 c 4
 92 245 91 275 89 301 c 4
 85 342 81 430 78 496 c 4
 73 617 74 617 49 647 c 4
 24 677 13 693 13 704 c 4
 13 712 17 718 26 728 c 4
 38 741 62 755 93 765 c 4
EndSplineSet
Validated: 1
EndChar

StartChar: l
Encoding: 108 108 37
Width: 253
Flags: HW
LayerCount: 2
Fore
SplineSet
74 722 m 4
 84 726 110 730 131 730 c 4
 134 730 135 730 137 730 c 4
 179 730 189 724 189 658 c 4
 189 641 189 620 188 593 c 4
 187 571 187 539 187 501 c 4
 187 437 188 358 190 290 c 4
 196 91 195 91 212 70 c 4
 223 57 230 46 230 36 c 4
 230 29 228 23 222 15 c 4
 215 5 201 4 149 1 c 4
 141 1 133 0 125 0 c 4
 74 0 38 8 28 21 c 4
 24 26 23 31 23 36 c 4
 23 45 27 52 35 54 c 4
 75 67 81 73 88 94 c 4
 91 104 93 117 93 130 c 4
 93 135 94 140 93 144 c 4
 92 150 91 167 91 194 c 4
 91 235 92 294 94 357 c 4
 95 409 96 451 96 482 c 4
 96 568 90 592 73 624 c 4
 68 634 56 650 46 659 c 4
 36 669 29 678 29 682 c 4
 29 692 53 712 74 722 c 4
EndSplineSet
Validated: 1
EndChar

StartChar: m
Encoding: 109 109 38
Width: 808
Flags: HW
LayerCount: 2
Fore
SplineSet
310 483 m 4
 312 483 314 484 317 484 c 4
 343 484 394 470 411 456 c 4
 427 444 441 437 456 437 c 4
 469 437 482 441 499 450 c 4
 529 465 562 473 591 473 c 4
 626 473 659 462 682 441 c 4
 723 404 724 397 724 231 c 4
 724 79 724 79 747 59 c 4
 761 46 769 31 769 21 c 4
 769 12 764 5 754 2 c 4
 745 0 705 -1 665 -1 c 4
 599 -1 592 0 588 12 c 4
 587 15 587 18 587 21 c 4
 587 34 597 51 611 61 c 4
 636 78 641 96 641 192 c 4
 641 199 641 205 641 213 c 4
 641 315 640 325 626 351 c 4
 609 380 582 396 549 396 c 4
 533 396 514 392 494 384 c 4
 462 372 455 347 453 241 c 4
 453 228 453 214 453 201 c 4
 453 161 453 124 455 109 c 4
 459 76 462 71 487 58 c 4
 506 47 517 33 517 22 c 4
 517 18 515 15 512 12 c 4
 508 8 483 2 455 -2 c 4
 440 -4 423 -5 406 -5 c 4
 361 -5 314 2 304 12 c 4
 301 15 300 17 300 21 c 4
 300 32 311 48 327 58 c 4
 355 73 362 111 363 241 c 4
 363 254 363 267 363 277 c 4
 363 373 355 381 303 397 c 4
 285 403 275 405 265 405 c 4
 256 405 249 404 238 400 c 4
 191 385 188 376 186 220 c 4
 185 189 185 164 185 145 c 4
 185 80 191 76 215 55 c 4
 232 40 245 25 245 21 c 4
 245 9 183 0 130 -0 c 4
 101 0 73 2 60 8 c 4
 46 14 39 19 39 27 c 4
 39 36 48 47 66 67 c 4
 89 94 94 120 94 226 c 4
 94 233 94 238 94 246 c 4
 94 329 90 343 61 381 c 4
 51 393 46 400 46 406 c 4
 46 413 52 418 64 430 c 4
 89 454 124 467 152 467 c 4
 166 467 179 464 189 457 c 4
 199 450 207 448 213 452 c 4
 222 459 283 477 310 483 c 4
EndSplineSet
Validated: 1
EndChar

StartChar: t
Encoding: 116 116 39
Width: 301
Flags: HW
HStem: -4 97<159.883 227.341> 7 86<178.844 256.263> 400 86<173.12 289.281>
VStem: 52 93<104.677 342.056>
LayerCount: 2
Fore
SplineSet
65 484 m 4xb0
 101 519 123 536 138 536 c 4
 148 536 154 528 161 515 c 4
 167 505 172 492 172 486 c 4
 172 473 188 465 210 465 c 4
 215 465 219 465 224 466 c 4
 229 467 233 467 237 467 c 4
 266 467 288 450 288 425 c 4
 288 421 288 417 287 413 c 4
 281 392 259 383 213 383 c 4
 146 383 145 382 145 245 c 4
 145 133 146 127 160 109 c 4
 171 95 177 91 199 91 c 4
 203 91 208 91 214 91 c 4
 216 91 216 91 218 91 c 4xb0
 255 91 277 82 277 68 c 4
 277 55 246 21 224 10 c 4x70
 211 3 194 -1 177 -1 c 4
 144 -1 108 10 91 30 c 4
 84 38 74 60 67 80 c 4
 60 100 57 112 57 145 c 4
 57 166 59 195 61 240 c 4
 63 282 65 310 65 329 c 4
 65 368 58 374 40 390 c 4
 25 404 13 419 13 424 c 4
 13 429 37 456 65 484 c 4xb0
EndSplineSet
Validated: 1
EndChar

StartChar: n
Encoding: 110 110 40
Width: 508
Flags: HW
LayerCount: 2
Fore
SplineSet
81 465 m 4
 102 476 113 482 122 482 c 4
 131 482 137 476 147 466 c 4
 157 455 169 450 184 450 c 4
 198 450 215 453 237 462 c 4
 260 471 284 476 308 476 c 4
 351 476 392 463 414 436 c 4
 442 402 448 364 448 230 c 4
 448 115 449 108 466 75 c 4
 476 53 482 36 482 25 c 4
 482 2 462 -4 414 -4 c 4
 346 -3 303 5 298 18 c 4
 298 19 297 19 297 20 c 4
 297 28 305 40 322 55 c 4
 352 82 354 82 356 168 c 4
 356 175 356 181 356 188 c 4
 356 200 356 213 356 224 c 4
 356 306 349 342 331 364 c 4
 313 385 283 397 245 397 c 4
 236 397 229 396 219 395 c 4
 185 391 178 388 168 369 c 4
 158 350 152 280 152 214 c 4
 152 189 153 165 155 144 c 4
 160 93 163 89 192 58 c 4
 209 40 223 23 223 20 c 4
 223 7 166 -2 116 -2 c 4
 84 -2 52 1 41 10 c 4
 31 17 26 30 26 40 c 4
 26 45 28 48 32 48 c 4
 35 48 43 59 53 71 c 4
 68 93 68 101 68 212 c 4
 68 222 68 229 68 237 c 4
 68 330 67 333 46 371 c 4
 34 394 28 405 28 413 c 4
 28 419 31 422 36 430 c 4
 43 440 63 455 81 465 c 4
EndSplineSet
Validated: 1
EndChar

StartChar: o
Encoding: 111 111 41
Width: 499
Flags: HW
HStem: -10 57<177.861 304.701> 451 61<179.697 303.372>
VStem: 10 97<145.784 353.238> 388 101<151.6 353.939>
LayerCount: 2
Fore
SplineSet
176 483 m 4
 196 490 212 493 234 493 c 4
 243 493 252 493 262 492 c 4
 325 487 359 469 411 413 c 4
 441 380 453 362 464 324 c 4
 474 294 477 275 477 254 c 4
 477 239 474 222 470 200 c 4
 451 97 388 24 301 5 c 4
 283 0 272 -3 257 -3 c 4
 242 -3 222 0 189 8 c 4
 123 23 65 70 37 135 c 4
 27 158 22 210 22 258 c 4
 22 291 25 322 31 336 c 4
 58 402 117 462 176 483 c 4
308 409 m 4
 285 426 262 435 240 435 c 4
 202 435 168 410 144 362 c 4
 127 327 114 269 114 231 c 4
 114 222 114 216 115 210 c 4
 125 162 149 107 173 80 c 4
 195 56 209 52 237 51 c 4
 324 52 381 138 381 268 c 4
 381 316 348 378 308 409 c 4
EndSplineSet
Validated: 1
EndChar

StartChar: p
Encoding: 112 112 42
Width: 475
Flags: HW
LayerCount: 2
Fore
SplineSet
90 459 m 4
 107 468 121 471 132 471 c 4
 143 471 152 468 163 459 c 4
 177 448 190 445 247 444 c 4
 294 443 320 439 334 431 c 4
 406 392 453 316 453 233 c 4
 453 226 453 221 452 214 c 4
 444 128 394 44 333 16 c 4
 310 5 254 -5 222 -5 c 4
 215 -5 211 -5 207 -4 c 4
 205 -4 202 -3 199 -3 c 4
 190 -3 182 -5 176 -9 c 4
 166 -17 165 -23 165 -70 c 4
 165 -83 165 -99 165 -119 c 4
 166 -174 168 -225 170 -233 c 4
 172 -241 188 -256 208 -267 c 4
 218 -272 222 -278 222 -283 c 4
 222 -295 198 -305 177 -309 c 4
 164 -313 147 -314 130 -314 c 4
 80 -314 22 -301 22 -284 c 4
 22 -278 30 -265 38 -254 c 4
 71 -210 70 -216 73 53 c 4
 74 117 74 165 74 202 c 4
 74 303 72 317 63 336 c 4
 56 351 46 367 40 373 c 4
 32 380 29 386 29 395 c 4
 29 416 51 442 90 459 c 4
300 350 m 4
 277 366 262 371 229 373 c 4
 219 374 213 373 207 373 c 4
 189 373 184 369 174 357 c 4
 159 338 160 342 157 190 c 4
 157 183 156 177 156 171 c 4
 156 102 169 79 206 62 c 4
 219 56 231 53 243 53 c 4
 265 53 285 63 306 83 c 4
 339 115 356 152 361 204 c 4
 361 209 361 213 361 218 c 4
 361 271 338 324 300 350 c 4
EndSplineSet
Validated: 1
EndChar

StartChar: r
Encoding: 114 114 43
Width: 349
Flags: HW
LayerCount: 2
Fore
SplineSet
72 462 m 4
 87 470 101 474 114 474 c 4
 134 474 151 465 161 446 c 4
 167 436 173 426 177 426 c 4
 181 426 199 436 217 447 c 4
 245 464 267 473 286 473 c 4
 315 473 333 452 333 413 c 4
 333 374 324 360 293 360 c 4
 287 360 281 360 273 361 c 4
 244 365 225 367 213 367 c 4
 195 367 192 362 182 350 c 4
 172 336 168 327 168 268 c 4
 168 252 168 233 168 208 c 4
 169 141 172 84 176 80 c 4
 180 76 194 71 208 65 c 4
 227 58 238 49 238 40 c 4
 238 31 229 24 212 15 c 4
 193 5 146 -1 103 -1 c 4
 67 -1 34 2 26 11 c 4
 19 17 16 22 16 27 c 4
 16 35 24 43 41 60 c 4
 68 86 67 85 71 193 c 4
 72 222 73 245 73 265 c 4
 73 326 67 347 46 375 c 4
 36 387 32 400 32 411 c 4
 32 430 44 447 72 462 c 4
EndSplineSet
Validated: 1
EndChar

StartChar: q
Encoding: 113 113 44
Width: 511
Flags: HW
LayerCount: 2
Fore
SplineSet
190 457 m 4
 204 463 228 466 255 466 c 4
 284 466 317 463 343 456 c 4
 371 448 390 446 404 446 c 4
 439 446 441 463 451 463 c 4
 458 463 459 461 459 441 c 4
 459 426 458 400 457 354 c 4
 455 272 454 187 454 108 c 4
 454 -74 459 -224 468 -233 c 4
 471 -236 487 -240 498 -241 c 4
 510 -242 522 -245 523 -246 c 4
 524 -247 529 -258 533 -268 c 4
 536 -274 537 -278 537 -282 c 4
 537 -299 510 -302 407 -306 c 4
 378 -307 355 -308 338 -308 c 4
 297 -308 285 -304 285 -292 c 4
 285 -286 287 -281 291 -271 c 4
 296 -259 307 -247 325 -240 c 4
 355 -229 354 -227 364 -84 c 4
 365 -62 367 -47 367 -36 c 4
 367 -13 365 -6 357 4 c 4
 350 13 347 16 339 16 c 4
 332 16 322 13 302 6 c 4
 275 -3 241 -7 210 -7 c 4
 187 -7 166 -6 151 0 c 4
 68 28 16 110 16 213 c 4
 16 342 63 407 190 457 c 4
315 381 m 4
 297 391 275 396 254 396 c 4
 224 396 194 387 174 368 c 4
 164 358 146 337 134 320 c 4
 116 294 114 286 114 246 c 4
 114 241 114 236 114 229 c 4
 115 178 118 166 133 141 c 4
 171 80 228 48 299 48 c 4
 334 48 340 50 357 70 c 4
 370 85 374 90 374 132 c 4
 374 150 374 175 373 211 c 4
 368 344 366 353 315 381 c 4
EndSplineSet
Validated: 1
EndChar

StartChar: s
Encoding: 115 115 45
Width: 298
Flags: HW
HStem: -4 70<65.9838 169.01> 440 68<112.75 203.068>
VStem: 13 85<343.162 422.813> 187 97<84.454 185.289>
LayerCount: 2
Fore
SplineSet
123 478 m 4
 137 482 152 484 166 484 c 4
 177 484 188 483 198 481 c 4
 246 471 278 441 278 409 c 4
 278 395 275 380 270 372 c 4
 265 366 259 364 252 364 c 4
 239 364 225 373 216 389 c 4
 210 399 200 412 192 416 c 4
 186 419 180 420 172 420 c 4
 145 420 111 403 103 384 c 4
 101 380 101 376 101 371 c 4
 101 349 119 325 151 305 c 4
 202 272 249 228 263 201 c 4
 272 184 277 157 277 132 c 4
 277 118 276 105 272 96 c 4
 255 58 239 39 205 22 c 4
 173 6 141 -2 113 -2 c 4
 84 -2 59 6 40 24 c 4
 25 38 21 44 21 61 c 4
 21 65 21 70 21 76 c 4
 23 104 25 107 38 109 c 4
 48 110 51 103 53 101 c 4
 64 89 90 64 120 64 c 4
 142 64 151 68 167 84 c 4
 180 97 185 105 185 117 c 4
 185 121 184 126 183 132 c 4
 177 169 162 188 106 226 c 4
 45 267 20 303 20 351 c 4
 20 403 60 460 123 478 c 4
EndSplineSet
Validated: 1
EndChar

StartChar: u
Encoding: 117 117 46
Width: 523
Flags: HW
LayerCount: 2
Fore
SplineSet
53 475 m 4
 64 481 92 484 113 485 c 4
 156 485 168 483 168 417 c 4
 168 392 167 358 164 312 c 4
 162 271 160 240 160 213 c 4
 160 136 171 113 199 94 c 4
 214 84 236 79 259 79 c 4
 278 79 296 81 311 89 c 4
 344 104 355 128 355 214 c 4
 355 228 355 244 354 262 c 4
 353 334 350 378 344 388 c 4
 339 397 323 410 309 418 c 4
 291 428 282 433 282 442 c 4
 282 448 285 454 291 463 c 4
 300 475 337 484 371 484 c 4
 386 484 402 483 413 479 c 4
 435 472 442 462 442 428 c 4
 442 412 441 391 438 361 c 4
 434 319 430 243 430 194 c 4
 430 103 430 104 455 81 c 4
 468 68 481 59 485 59 c 4
 489 59 491 51 491 42 c 4
 491 22 472 12 421 6 c 4
 411 5 400 4 391 4 c 4
 363 4 349 11 341 27 c 4
 336 38 328 44 318 44 c 4
 307 44 291 37 270 24 c 4
 242 7 216 -1 191 -1 c 4
 175 -1 159 2 144 10 c 4
 87 38 78 71 78 248 c 4
 78 370 72 400 47 430 c 4
 37 442 32 450 32 457 c 4
 32 465 39 469 53 475 c 4
EndSplineSet
Validated: 1
EndChar

StartChar: v
Encoding: 118 118 47
Width: 493
Flags: HW
LayerCount: 2
Fore
SplineSet
35 468 m 4
 45 478 56 481 107 481 c 4
 170 481 216 469 216 453 c 4
 216 447 206 435 195 425 c 4
 182 414 176 405 176 390 c 4
 176 376 182 356 193 322 c 4
 221 236 240 197 256 192 c 4
 259 191 263 191 266 191 c 4
 281 191 290 209 314 277 c 4
 333 333 343 363 343 384 c 4
 343 399 338 410 328 421 c 4
 317 434 312 442 312 451 c 4
 312 458 314 463 321 470 c 4
 329 478 354 482 382 482 c 4
 411 482 443 478 453 469 c 4
 461 462 465 456 465 448 c 4
 465 437 456 426 441 416 c 4
 423 406 406 373 341 232 c 4
 317 180 309 158 286 80 c 4
 273 37 262 14 252 7 c 4
 245 3 240 1 235 1 c 4
 217 1 204 32 178 118 c 4
 168 151 154 191 147 206 c 4
 140 221 131 245 126 260 c 4
 122 275 108 309 96 336 c 4
 83 363 72 387 72 391 c 4
 72 395 65 404 55 414 c 4
 37 431 28 443 28 453 c 4
 28 459 30 462 35 468 c 4
EndSplineSet
Validated: 1
EndChar

StartChar: w
Encoding: 119 119 48
Width: 754
Flags: HW
LayerCount: 2
Fore
SplineSet
40 470 m 4
 46 474 89 477 137 477 c 4
 209 477 224 476 234 466 c 4
 238 462 241 459 241 456 c 4
 241 450 234 444 217 430 c 4
 202 417 190 402 190 398 c 4
 190 381 234 254 252 219 c 4
 271 182 281 172 305 172 c 4
 315 172 318 179 321 207 c 4
 324 226 331 249 337 258 c 4
 343 268 349 296 351 324 c 4
 352 336 353 346 353 354 c 4
 353 375 347 380 323 404 c 4
 303 424 292 439 292 449 c 4
 292 466 325 471 400 471 c 4
 465 471 483 469 492 460 c 4
 498 454 502 447 502 444 c 4
 502 435 486 423 474 423 c 4
 466 423 453 416 444 407 c 4
 434 397 430 390 430 380 c 4
 430 376 431 372 432 367 c 4
 442 314 486 190 500 178 c 4
 503 175 506 174 509 174 c 4
 531 174 557 224 580 309 c 4
 590 347 596 369 596 383 c 4
 596 399 589 407 577 418 c 4
 564 429 558 438 558 447 c 4
 558 452 559 457 563 463 c 4
 568 472 605 476 640 476 c 4
 665 476 689 475 701 469 c 4
 714 463 727 455 727 449 c 4
 727 443 712 428 696 415 c 4
 676 397 663 379 652 351 c 4
 643 329 627 296 617 277 c 4
 607 259 594 228 587 209 c 4
 580 191 573 173 570 169 c 4
 566 163 561 143 536 48 c 4
 530 25 522 13 512 8 c 4
 505 5 500 3 495 3 c 4
 473 3 461 33 437 122 c 4
 418 195 394 238 376 238 c 4
 368 238 363 231 358 216 c 4
 354 206 345 189 339 179 c 4
 330 168 327 143 325 101 c 4
 321 35 311 5 291 -1 c 4
 286 -3 281 -3 276 -3 c 4
 253 -3 239 22 215 94 c 4
 205 123 184 176 169 209 c 4
 104 353 92 377 60 406 c 4
 39 426 27 441 27 453 c 4
 27 461 32 465 40 470 c 4
EndSplineSet
Validated: 1
EndChar

StartChar: x
Encoding: 120 120 49
Width: 559
Flags: HW
HStem: -2 55<462.005 524.336> 483 20G<67 102 392 416>
VStem: 35 144<17 81> 226 99<229.096 281.14> 372 150<417 472>
LayerCount: 2
Fore
SplineSet
38 476 m 4
 42 480 63 482 93 482 c 4
 129 482 179 479 230 474 c 4
 256 471 268 465 268 455 c 4
 268 448 262 441 252 432 c 4
 241 423 235 416 235 406 c 4
 235 396 241 383 252 361 c 4
 268 332 283 318 298 318 c 4
 313 318 328 332 348 362 c 4
 360 382 367 395 367 406 c 4
 367 416 363 425 353 436 c 4
 345 446 339 456 339 461 c 4
 339 471 368 479 404 479 c 4
 414 479 425 478 435 477 c 4
 461 475 487 474 492 473 c 4
 497 473 503 466 507 459 c 4
 509 456 510 454 510 452 c 4
 510 445 502 438 477 425 c 4
 439 404 336 309 324 280 c 4
 323 279 323 277 323 275 c 4
 323 239 428 83 458 74 c 4
 468 72 483 67 491 63 c 4
 499 60 511 57 518 55 c 4
 526 52 530 47 530 41 c 4
 530 33 524 26 513 18 c 4
 500 9 476 5 410 2 c 4
 400 2 391 2 382 2 c 4
 319 2 290 9 290 25 c 4
 290 33 297 42 308 53 c 4
 318 63 324 69 324 78 c 4
 324 88 317 99 303 120 c 4
 284 147 259 164 243 164 c 4
 234 164 184 87 184 76 c 4
 184 69 191 52 200 38 c 4
 207 28 210 22 210 16 c 4
 210 2 188 -2 130 -5 c 4
 108 -6 92 -8 82 -8 c 4
 60 -8 58 -5 52 5 c 4
 49 11 47 17 47 23 c 4
 47 39 59 55 84 68 c 4
 127 90 224 185 229 210 c 4
 230 213 229 216 229 219 c 4
 229 242 212 269 156 343 c 4
 119 392 109 402 71 417 c 4
 37 431 29 438 29 451 c 4
 29 461 33 471 38 476 c 4
EndSplineSet
Validated: 1
EndChar

StartChar: y
Encoding: 121 121 51
Width: 540
Flags: HW
LayerCount: 2
Fore
SplineSet
372 478 m 0
 375 479 384 479 394 479 c 0
 401 479 408 479 418 479 c 0
 443 479 473 478 491 473 c 0
 505 469 508 464 508 454 c 0
 508 440 503 433 465 413 c 0
 443 402 439 399 423 354 c 0
 401 294 381 251 374 239 c 0
 355 203 340 164 319 106 c 0
 308 75 296 49 279 11 c 0
 255 -42 248 -59 248 -62 c 0
 248 -67 234 -99 228 -111 c 0
 185 -207 144 -255 114 -264 c 0
 109 -265 105 -266 99 -266 c 0
 64 -266 37 -232 37 -197 c 0
 37 -182 42 -165 58 -150 c 0
 69 -140 82 -134 102 -134 c 0
 133 -134 158 -119 197 -37 c 0
 213 -3 225 29 225 56 c 0
 225 64 224 69 223 72 c 0
 217 104 139 301 113 355 c 0
 99 385 84 406 58 423 c 0
 43 434 32 445 32 453 c 0
 32 467 62 471 127 473 c 0
 146 474 161 474 161 474 c 2
 206 474 213 471 224 462 c 0
 232 455 236 450 236 445 c 0
 236 439 230 436 216 433 c 0
 198 428 196 424 195 410 c 0
 194 402 193 400 193 394 c 0
 193 388 194 376 198 366 c 0
 200 362 210 341 213 336 c 0
 239 279 244 227 276 199 c 0
 282 194 283 194 283 194 c 1
 313 194 333 265 339 283 c 0
 346 305 352 329 360 347 c 0
 368 363 374 383 374 400 c 0
 374 420 365 435 348 439 c 0
 342 441 338 444 338 449 c 0
 338 460 353 475 372 478 c 0
EndSplineSet
Validated: 1
EndChar

StartChar: z
Encoding: 122 122 52
Width: 418
Flags: HW
LayerCount: 2
Fore
SplineSet
70 475 m 4
 81 481 88 483 92 483 c 4
 97 483 99 481 104 474 c 4
 120 454 154 447 259 445 c 4
 357 443 379 439 379 420 c 4
 379 416 360 382 336 343 c 4
 312 304 294 269 294 268 c 4
 294 266 280 246 263 221 c 4
 212 150 199 131 183 101 c 4
 175 87 171 81 171 75 c 4
 171 70 174 68 179 63 c 4
 187 55 196 53 221 53 c 4
 226 53 231 53 237 53 c 4
 294 54 325 67 349 97 c 4
 359 110 372 120 380 120 c 4
 390 120 392 119 392 98 c 4
 392 90 392 80 391 68 c 4
 389 38 386 14 380 8 c 4
 373 1 332 -1 215 -2 c 4
 182 -3 155 -3 133 -3 c 4
 69 -3 50 -1 38 6 c 4
 29 11 26 16 26 23 c 4
 26 40 47 64 58 88 c 4
 64 98 70 108 72 114 c 4
 74 120 87 137 98 153 c 4
 184 268 218 321 225 358 c 4
 226 365 227 369 227 373 c 4
 227 382 222 383 205 386 c 4
 195 388 185 389 175 389 c 4
 145 389 118 380 97 363 c 4
 83 352 68 344 58 344 c 4
 57 344 57 344 56 344 c 4
 45 345 40 354 40 379 c 4
 40 391 42 406 44 427 c 4
 47 459 48 464 70 475 c 4
EndSplineSet
Validated: 1
EndChar

StartChar: period
Encoding: 46 46 53
Width: 214
Flags: HW
LayerCount: 2
Fore
SplineSet
93 179 m 1
 93 181 l 1
 99 183 106 183 113 183 c 0
 130 183 148 179 162 170 c 0
 170 164 191 150 191 92 c 0
 191 69 183 54 170 39 c 0
 141 11 127 5 98 5 c 0
 79 5 69 10 51 26 c 0
 32 44 23 55 23 81 c 0
 23 87 23 94 24 102 c 0
 29 131 64 171 93 179 c 1
EndSplineSet
Validated: 1
EndChar

StartChar: colon
Encoding: 58 58 54
Width: 214
Flags: HW
LayerCount: 2
Fore
SplineSet
170 518 m 4
 183 508 197 483 197 460 c 4
 197 442 188 425 165 404 c 4
 152 392 140 388 127 388 c 4
 125 388 123 389 121 389 c 4
 90 394 80 399 66 419 c 4
 58 430 55 438 55 453 c 4
 55 456 55 459 55 462 c 4
 57 490 63 504 90 523 c 4
 99 529 111 531 124 531 c 4
 141 531 159 527 170 518 c 4
86 190 m 4
 97 199 116 206 134 206 c 4
 137 206 141 207 144 206 c 4
 164 203 178 189 193 157 c 4
 197 147 199 138 199 130 c 4
 199 122 198 114 195 106 c 4
 182 74 172 65 150 55 c 4
 142 52 137 50 130 50 c 4
 123 50 117 52 107 55 c 4
 81 64 69 73 59 107 c 4
 58 111 57 115 57 120 c 4
 57 144 70 176 86 190 c 4
EndSplineSet
Validated: 1
EndChar

StartChar: comma
Encoding: 44 44 55
Width: 258
Flags: HW
LayerCount: 2
Fore
SplineSet
112 166 m 4
 124 172 137 174 150 174 c 4
 187 174 224 153 242 117 c 4
 254 94 260 81 260 49 c 4
 260 43 259 37 259 30 c 4
 256 -28 243 -50 211 -84 c 4
 183 -114 143 -125 113 -125 c 4
 88 -125 68 -118 68 -107 c 4
 68 -104 70 -99 74 -95 c 4
 79 -90 95 -81 110 -73 c 4
 139 -58 163 -28 163 -5 c 4
 163 19 145 42 110 62 c 4
 85 77 76 87 76 104 c 4
 76 112 78 121 81 132 c 4
 86 150 93 157 112 166 c 4
EndSplineSet
Validated: 1
EndChar

StartChar: semicolon
Encoding: 59 59 56
Width: 258
Flags: HW
LayerCount: 2
Fore
SplineSet
163 533 m 5
 163 535 l 5
 179 532 200 518 209 500 c 4
 213 493 215 484 215 475 c 4
 215 463 211 449 203 430 c 4
 195 411 183 402 168 396 c 4
 153 391 142 389 133 389 c 4
 123 389 115 391 104 397 c 4
 90 404 85 411 78 431 c 4
 74 443 72 452 72 461 c 4
 72 472 76 483 86 500 c 4
 98 518 130 534 154 534 c 4
 157 534 160 534 163 533 c 5
92 206 m 4
 104 212 117 214 130 214 c 4
 167 214 204 193 222 157 c 4
 234 134 240 121 240 89 c 4
 240 83 239 77 239 70 c 4
 236 12 223 -10 191 -44 c 4
 163 -74 123 -85 93 -85 c 4
 68 -85 48 -78 48 -67 c 4
 48 -64 50 -59 54 -55 c 4
 59 -50 75 -41 90 -33 c 4
 119 -18 143 12 143 35 c 4
 143 59 125 82 90 102 c 4
 65 117 56 127 56 144 c 4
 56 152 58 161 61 172 c 4
 66 190 73 197 92 206 c 4
EndSplineSet
Validated: 1
EndChar

StartChar: hyphen
Encoding: 45 45 57
Width: 418
Flags: HW
LayerCount: 2
Fore
SplineSet
87 296 m 0
 104 307 157 313 210 313 c 0
 262 313 314 308 330 296 c 0
 345 286 352 270 352 254 c 0
 352 239 346 223 332 209 c 0
 314 191 298 189 217 189 c 0
 103 189 70 202 66 248 c 0
 66 251 66 254 66 257 c 0
 66 275 72 285 87 296 c 0
EndSplineSet
Validated: 1
EndChar

StartChar: quotesingle
Encoding: 39 39 58
Width: 258
Flags: HW
LayerCount: 2
Fore
SplineSet
72 756 m 0
 84 762 97 764 110 764 c 0
 147 764 184 743 202 707 c 0
 214 684 220 671 220 639 c 0
 220 633 219 627 219 620 c 0
 216 562 203 540 171 506 c 0
 143 476 103 465 73 465 c 0
 48 465 28 472 28 483 c 0
 28 486 30 491 34 495 c 0
 39 500 55 509 70 517 c 0
 99 532 123 562 123 585 c 0
 123 609 105 632 70 652 c 0
 45 667 36 677 36 694 c 0
 36 702 38 711 41 722 c 0
 46 740 53 747 72 756 c 0
EndSplineSet
Validated: 1
EndChar

StartChar: ampersand
Encoding: 38 38 59
Width: 832
Flags: HW
LayerCount: 2
Fore
SplineSet
120 343 m 0
 137 371 168 402 188 420 c 0
 208 438 218 455 218 469 c 0
 218 480 212 489 199 494 c 0
 197 495 194 495 192 495 c 0
 158 495 90 420 90 376 c 0
 90 357 95 325 101 325 c 0
 102 325 102 324 103 325 c 0
 111 334 116 340 120 343 c 0
455 774 m 0
 468 782 483 787 498 787 c 0
 534 787 568 765 568 734 c 0
 568 712 344 488 296 463 c 0
 279 454 241 421 214 390 c 0
 189 361 124 299 113 296 c 1
 107 281 99 268 96 263 c 0
 88 242 83 230 83 217 c 0
 83 202 89 187 101 159 c 0
 128 98 150 81 222 68 c 0
 229 67 236 66 244 66 c 0
 299 66 369 98 431 152 c 0
 488 202 520 261 543 363 c 0
 551 395 554 414 554 427 c 0
 554 440 550 446 541 451 c 0
 534 456 517 458 496 458 c 0
 460 458 414 452 399 442 c 0
 392 437 388 428 388 414 c 0
 388 396 393 373 405 345 c 0
 413 327 417 313 417 301 c 0
 417 293 415 285 412 279 c 0
 404 264 383 256 363 256 c 0
 348 256 334 261 328 271 c 0
 323 280 320 293 320 308 c 0
 320 340 331 382 351 422 c 0
 390 498 451 543 527 549 c 0
 538 550 547 551 556 551 c 0
 588 551 607 543 646 516 c 0
 678 494 708 476 712 476 c 0
 717 476 728 492 737 513 c 0
 750 546 769 562 786 562 c 0
 808 562 827 535 827 487 c 0
 827 449 821 433 799 419 c 0
 768 401 738 391 712 391 c 0
 694 391 677 395 663 404 c 0
 647 415 634 420 624 420 c 0
 603 420 594 398 594 350 c 0
 594 268 564 172 521 115 c 0
 447 18 359 -32 265 -32 c 0
 254 -32 243 -31 232 -30 c 0
 94 -13 40 42 12 201 c 0
 7 231 5 258 5 283 c 0
 5 336 17 382 46 444 c 0
 76 511 114 548 188 578 c 0
 203 584 214 586 225 586 c 0
 239 586 253 581 275 571 c 0
 293 562 305 557 315 557 c 0
 332 557 346 571 384 610 c 0
 431 658 442 676 442 708 c 0
 442 712 442 715 442 719 c 0
 442 723 441 726 441 730 c 0
 441 751 447 770 455 774 c 0
EndSplineSet
Validated: 1
EndChar

StartChar: bracketleft
Encoding: 91 91 61
Width: 316
Flags: HW
LayerCount: 2
Fore
SplineSet
113 760 m 0
 178 766 224 768 257 768 c 0
 298 768 320 764 332 755 c 0
 345 746 351 737 351 729 c 0
 351 703 288 684 185 684 c 0
 150 684 116 678 107 669 c 0
 96 658 92 556 92 281 c 0
 92 76 96 -109 100 -130 c 0
 110 -177 140 -189 259 -193 c 0
 335 -195 360 -201 360 -220 c 0
 360 -224 359 -229 357 -235 c 0
 351 -254 327 -256 197 -256 c 0
 79 -256 41 -252 27 -237 c 0
 11 -222 8 -144 7 248 c 0
 7 277 7 305 7 332 c 0
 7 568 11 724 18 734 c 0
 25 746 59 755 113 760 c 0
EndSplineSet
Validated: 1
EndChar

StartChar: bracketright
Encoding: 93 93 62
Width: 304
Flags: HW
LayerCount: 2
Fore
SplineSet
-51 752 m 0
 -36 763 18 768 77 768 c 0
 158 768 251 758 267 742 c 0
 284 726 286 660 291 264 c 0
 293 150 293 62 293 -5 c 0
 293 -155 289 -203 280 -216 c 0
 268 -234 237 -240 120 -249 c 0
 67 -253 33 -256 10 -256 c 0
 -26 -256 -35 -250 -50 -236 c 0
 -61 -224 -67 -215 -67 -208 c 0
 -67 -204 -65 -201 -61 -197 c 0
 -43 -179 42 -162 121 -161 c 0
 159 -161 189 -155 198 -144 c 0
 206 -134 211 31 211 207 c 0
 211 363 207 527 200 597 c 0
 193 676 193 676 82 680 c 0
 -12 682 -33 687 -53 708 c 0
 -64 720 -69 726 -69 732 c 0
 -69 738 -63 743 -51 752 c 0
EndSplineSet
Validated: 1
EndChar

StartChar: at
Encoding: 64 64 63
Width: 267
Flags: HW
LayerCount: 2
Fore
SplineSet
249 786 m 4
 297 809 319 814 367 814 c 4
 431 814 447 807 447 763 c 4
 447 758 446 753 446 747 c 4
 443 711 435 694 415 694 c 4
 404 694 389 698 370 708 c 4
 342 722 319 730 297 730 c 4
 259 730 230 707 212 663 c 4
 196 624 180 429 180 270 c 4
 180 252 181 236 181 220 c 4
 184 82 184 81 219 51 c 4
 237 36 248 25 248 16 c 4
 248 1 214 -2 136 -2 c 4
 64 -2 34 2 20 12 c 4
 13 18 9 20 9 25 c 4
 9 32 17 39 39 58 c 4
 76 90 76 92 76 219 c 4
 75 343 75 346 50 372 c 4
 34 388 27 403 27 416 c 4
 27 430 36 444 54 457 c 4
 77 474 84 485 84 513 c 4
 84 532 93 579 104 615 c 4
 128 698 169 745 249 786 c 4
EndSplineSet
Validated: 1
EndChar

StartChar: question
Encoding: 63 63 64
Width: 301
Flags: HW
LayerCount: 2
Fore
SplineSet
57 745 m 0
 75 756 83 761 94 761 c 0
 105 761 118 757 150 749 c 0
 234 727 281 673 281 598 c 0
 281 542 248 488 173 421 c 0
 124 377 103 350 103 328 c 0
 103 319 106 311 114 303 c 0
 127 289 143 284 187 284 c 0
 247 284 263 275 263 238 c 0
 263 212 250 203 209 203 c 0
 152 203 55 270 32 326 c 0
 26 341 23 355 23 370 c 0
 23 415 53 463 124 535 c 0
 178 591 190 604 190 627 c 0
 190 630 189 634 189 637 c 0
 186 667 187 668 129 668 c 0
 125 668 121 668 117 668 c 0
 53 669 19 682 19 702 c 0
 19 714 31 729 57 745 c 0
123 126 m 0
 139 143 159 151 179 151 c 0
 201 151 224 141 240 121 c 0
 252 106 258 90 258 75 c 0
 258 44 235 16 195 8 c 0
 190 7 185 7 181 7 c 0
 166 7 154 14 133 32 c 0
 112 51 102 67 102 83 c 0
 102 97 109 110 123 126 c 0
EndSplineSet
Validated: 1
EndChar

StartChar: asterisk
Encoding: 42 42 65
Width: 475
Flags: HW
LayerCount: 2
Fore
SplineSet
103 696 m 0
 102 704 101 711 101 716 c 0
 101 728 106 729 121 729 c 0
 138 729 157 717 181 686 c 0
 212 649 229 631 247 631 c 0
 262 631 277 643 303 666 c 0
 338 697 365 711 380 711 c 0
 390 711 395 705 395 695 c 0
 395 680 384 657 362 625 c 0
 340 594 323 562 323 554 c 0
 323 546 345 527 372 512 c 0
 414 487 433 470 433 453 c 0
 433 447 430 441 425 434 c 0
 420 426 416 422 408 422 c 0
 399 422 386 428 359 439 c 0
 333 450 313 455 300 455 c 0
 281 455 274 445 274 422 c 0
 274 374 262 332 247 326 c 0
 245 325 243 325 241 325 c 0
 223 325 207 353 207 387 c 0
 207 434 191 468 169 468 c 0
 158 468 131 461 108 451 c 0
 87 442 72 437 61 437 c 0
 48 437 42 443 42 457 c 0
 42 477 73 508 116 529 c 0
 146 544 159 554 159 569 c 0
 159 580 152 595 138 617 c 0
 122 643 106 679 103 696 c 0
EndSplineSet
Validated: 1
EndChar

StartChar: parenleft
Encoding: 40 40 66
Width: 322
Flags: HW
LayerCount: 2
Fore
SplineSet
263 739 m 1
 303 758 331 768 349 768 c 0
 363 768 370 762 370 751 c 0
 370 728 338 681 272 617 c 0
 161 508 112 391 112 230 c 0
 112 227 112 225 112 222 c 0
 112 94 160 -23 252 -111 c 0
 294 -152 315 -194 315 -222 c 0
 315 -243 303 -256 281 -256 c 0
 277 -256 274 -256 269 -255 c 0
 138 -231 0 65 -0 230 c 0
 0 237 1 243 1 249 c 0
 21 463 84 597 263 739 c 1
EndSplineSet
Validated: 1
EndChar

StartChar: parenright
Encoding: 41 41 67
Width: 340
Flags: HW
LayerCount: 2
Fore
SplineSet
-8 768 m 0
 -5 771 -1 773 4 773 c 0
 72 773 325 534 330 289 c 0
 330 282 331 276 331 269 c 0
 331 -39 28 -254 -35 -254 c 0
 -40 -254 -43 -253 -45 -250 c 0
 -48 -245 -51 -238 -51 -232 c 0
 -51 -206 -22 -171 41 -121 c 0
 135 -46 223 116 233 234 c 0
 234 243 234 251 234 260 c 0
 234 391 170 539 66 642 c 0
 4 704 -18 731 -18 749 c 0
 -18 756 -14 762 -8 768 c 0
EndSplineSet
Validated: 1
EndChar

StartChar: c_t
Encoding: 256 -1 68
Width: 787
Flags: HW
LayerCount: 2
Fore
SplineSet
314 754 m 4
 343 763 373 768 401 768 c 4
 486 768 556 727 587 657 c 4
 600 628 607 604 607 578 c 4
 607 568 606 558 604 548 c 4
 602 535 601 525 601 516 c 4
 601 497 607 491 622 482 c 4
 641 471 733 487 748 445 c 4
 750 440 751 436 751 431 c 4
 751 407 726 389 692 389 c 4
 606 389 603 382 593 258 c 4
 590 226 589 199 589 177 c 4
 589 111 602 90 645 90 c 4
 655 90 666 91 679 93 c 4
 698 96 711 98 721 98 c 4
 738 98 743 93 743 83 c 4
 743 41 697 6 634 -1 c 4
 624 -2 614 -3 604 -3 c 4
 521 -3 487 49 487 174 c 4
 487 195 488 218 490 244 c 4
 492 274 493 298 493 315 c 4
 493 351 488 364 476 374 c 4
 463 385 456 396 456 406 c 4
 456 416 464 427 479 437 c 4
 509 455 546 531 546 572 c 4
 546 588 526 621 501 646 c 4
 471 676 438 691 400 691 c 4
 379 691 356 687 331 677 c 4
 292 663 260 604 260 553 c 4
 260 549 260 546 260 542 c 4
 264 505 271 499 334 481 c 4
 395 464 427 441 427 419 c 4
 427 409 420 399 403 389 c 4
 395 385 388 383 379 383 c 4
 364 383 344 389 315 402 c 4
 285 416 254 424 234 424 c 4
 230 424 227 424 224 423 c 4
 162 408 127 337 127 266 c 4
 127 218 143 169 179 137 c 4
 207 112 247 99 289 99 c 4
 319 99 349 106 377 120 c 4
 394 130 403 133 410 133 c 4
 417 133 420 130 423 120 c 4
 424 117 425 113 425 109 c 4
 425 61 312 -4 222 -5 c 4
 181 -5 156 3 125 30 c 4
 65 80 36 157 36 233 c 4
 36 316 70 399 138 453 c 4
 189 494 193 499 193 571 c 4
 193 634 197 653 232 695 c 4
 253 722 292 747 314 754 c 4
EndSplineSet
Validated: 1
LCarets2: 1 0
Ligature2: "'liga' Standard Ligatures in Latin lookup 0-1" c t
EndChar

StartChar: f_f
Encoding: 257 -1 69
Width: 633
Flags: HW
LayerCount: 2
Fore
SplineSet
514 803 m 4
 540 816 566 821 592 821 c 4
 658 821 719 782 719 729 c 4
 719 721 718 714 715 705 c 4
 709 687 699 679 680 679 c 4
 661 679 634 687 599 705 c 4
 571 719 556 726 542 726 c 4
 531 726 519 722 501 713 c 4
 459 693 458 688 450 599 c 4
 446 565 444 538 444 518 c 4
 444 458 462 451 521 451 c 4
 557 451 591 444 595 436 c 4
 597 432 598 429 598 425 c 4
 598 400 552 372 503 368 c 4
 448 364 448 364 444 222 c 4
 443 189 442 163 442 143 c 4
 442 78 449 73 475 56 c 4
 499 41 511 30 511 20 c 4
 511 5 474 -2 401 -2 c 4
 326 -2 292 3 292 21 c 4
 292 31 302 44 319 61 c 4
 339 81 345 116 352 219 c 4
 354 249 355 274 355 294 c 4
 355 376 336 384 259 384 c 4
 184 384 175 364 175 213 c 4
 175 113 179 88 203 58 c 4
 218 39 226 26 226 16 c 4
 226 1 208 -5 166 -5 c 4
 155 -5 141 -5 127 -4 c 4
 57 0 23 9 23 26 c 4
 23 35 32 45 47 57 c 4
 76 81 78 95 84 223 c 4
 85 256 86 281 86 300 c 4
 86 359 80 365 58 375 c 4
 39 384 29 397 29 411 c 4
 29 423 38 437 54 447 c 4
 73 459 79 489 85 541 c 4
 101 668 186 758 286 758 c 4
 292 758 297 758 304 757 c 4
 337 753 382 744 396 738 c 4
 401 736 406 735 411 735 c 4
 425 735 438 742 450 756 c 4
 464 770 493 793 514 803 c 4
341 648 m 4
 328 667 305 677 282 677 c 4
 260 677 237 668 222 651 c 4
 201 626 185 564 185 517 c 4
 185 502 186 488 190 478 c 4
 200 455 211 451 266 451 c 4
 300 451 335 457 345 467 c 4
 355 477 361 509 361 543 c 4
 361 584 354 628 341 648 c 4
EndSplineSet
Validated: 1
LCarets2: 1 0
Ligature2: "'liga' Standard Ligatures in Latin lookup 0-1" f f
EndChar

StartChar: f_f_i
Encoding: 258 -1 70
Width: 844
Flags: HW
LayerCount: 2
Fore
SplineSet
498 792 m 0
 567 818 609 827 646 827 c 0
 684 827 716 817 730 789 c 0
 735 778 738 763 738 752 c 0
 738 723 718 705 686 705 c 0
 666 705 642 712 596 736 c 0
 586 741 572 748 561 748 c 0
 550 748 540 742 532 736 c 0
 487 702 470 648 470 568 c 0
 470 555 470 547 470 539 c 0
 470 535 469 531 470 517 c 0
 474 454 474 454 528 452 c 0
 566 450 574 449 589 449 c 0
 626 449 656 455 691 473 c 0
 699 477 715 485 726 485 c 0
 745 485 751 462 751 395 c 0
 751 368 750 331 748 282 c 0
 746 226 744 186 744 153 c 0
 744 90 751 83 763 73 c 0
 798 43 810 27 810 14 c 0
 810 -5 782 -16 724 -16 c 0
 666 -16 647 -5 647 64 c 0
 647 87 649 112 650 132 c 0
 654 180 656 220 656 255 c 0
 656 280 655 304 648 351 c 0
 646 362 646 361 563 365 c 0
 544 366 534 366 534 366 c 2
 469 366 468 349 468 224 c 2
 468 224 468 220 468 142 c 0
 468 64 468 63 479 59 c 0
 524 42 535 34 535 27 c 0
 535 14 494 4 399 4 c 0
 332 4 316 9 312 27 c 0
 312 29 311 31 311 35 c 0
 311 44 317 51 326 51 c 0
 336 51 352 59 357 65 c 0
 371 82 378 164 378 243 c 0
 378 303 374 361 363 372 c 0
 354 381 318 386 284 386 c 0
 240 386 196 378 189 367 c 0
 181 356 177 292 177 207 c 0
 177 122 181 99 203 77 c 0
 215 65 234 51 247 47 c 0
 252 45 256 43 256 39 c 0
 256 35 252 30 250 27 c 0
 231 3 204 -3 142 -3 c 0
 66 -3 34 6 34 25 c 0
 34 35 44 50 64 70 c 0
 94 99 97 111 97 214 c 0
 97 333 93 354 65 380 c 0
 54 390 46 400 46 410 c 0
 46 420 54 431 64 441 c 0
 88 465 97 490 97 532 c 0
 97 581 109 625 131 668 c 0
 179 763 252 814 327 814 c 0
 353 814 376 808 414 792 c 0
 425 787 439 781 454 781 c 0
 470 781 488 788 498 792 c 0
358 700 m 0
 328 715 299 725 279 725 c 0
 222 725 177 646 177 508 c 0
 177 453 184 447 285 447 c 0
 357 447 362 450 368 465 c 0
 382 499 388 552 388 643 c 0
 388 680 387 685 358 700 c 0
EndSplineSet
Validated: 1
LCarets2: 2 0 0
Ligature2: "'liga' Standard Ligatures in Latin lookup 0-1" f f i
EndChar

StartChar: f_i
Encoding: 259 -1 71
Width: 580
Flags: HW
LayerCount: 2
Fore
SplineSet
271 793 m 0
 298 810 320 819 354 819 c 0
 366 819 377 818 388 817 c 0
 450 813 470 804 492 778 c 0
 511 756 518 737 518 722 c 0
 518 695 497 679 467 679 c 0
 449 679 427 685 401 703 c 0
 376 721 349 731 323 731 c 0
 296 731 273 720 256 698 c 0
 229 661 204 574 204 504 c 0
 204 467 211 455 237 445 c 0
 261 436 293 432 324 432 c 0
 362 432 401 438 429 446 c 0
 453 454 474 456 483 456 c 0
 490 456 493 455 494 454 c 0
 498 449 501 395 501 309 c 2
 501 309 501 293 500 262 c 0
 500 248 500 224 500 224 c 2
 500 117 506 95 525 62 c 0
 538 40 545 24 545 13 c 0
 545 -7 521 -11 472 -11 c 0
 391 -11 353 0 353 23 c 0
 353 33 361 47 376 61 c 0
 401 84 406 104 406 229 c 0
 406 354 401 376 329 376 c 0
 319 376 311 376 302 376 c 0
 300 376 298 376 292 376 c 0
 286 376 278 376 262 375 c 0
 211 372 211 372 209 354 c 0
 201 300 200 270 200 244 c 0
 200 218 201 193 204 153 c 0
 208 87 211 80 245 63 c 0
 270 50 282 40 282 31 c 0
 282 16 243 8 158 4 c 0
 153 4 141 4 141 4 c 2
 83 4 45 8 38 15 c 0
 37 16 35 19 35 23 c 0
 35 33 44 49 63 71 c 0
 94 108 96 120 96 228 c 0
 96 336 94 353 67 367 c 0
 53 374 44 383 44 395 c 0
 44 406 52 420 60 429 c 0
 80 453 100 504 110 560 c 0
 127 657 171 730 271 793 c 0
EndSplineSet
Validated: 1
Ligature2: "'liga' Standard Ligatures in Latin lookup 0-1" f i
LCarets2: 1 0
EndChar

StartChar: f_l
Encoding: 260 -1 72
Width: 559
Flags: HW
LayerCount: 2
Fore
SplineSet
227 777 m 4
 281 814 301 820 365 820 c 4
 387 820 406 821 421 821 c 4
 487 821 498 807 498 650 c 4
 498 597 497 528 496 438 c 4
 495 372 495 319 495 273 c 4
 495 111 500 64 511 50 c 4
 520 40 524 31 524 26 c 4
 524 25 524 23 524 23 c 6
 521 20 483 16 441 10 c 4
 421 8 406 7 395 7 c 4
 371 7 363 12 359 22 c 4
 358 24 357 27 357 30 c 4
 357 41 367 55 379 66 c 4
 399 82 405 92 405 158 c 4
 405 178 404 202 403 233 c 4
 399 378 400 378 334 388 c 4
 312 391 287 393 266 393 c 4
 253 393 240 392 232 390 c 4
 195 382 195 383 195 243 c 4
 195 93 198 82 246 57 c 4
 261 48 268 43 268 36 c 4
 268 32 265 28 260 22 c 4
 250 9 217 3 151 3 c 4
 72 3 35 10 35 29 c 4
 35 39 44 53 63 70 c 4
 101 105 103 109 103 232 c 4
 103 352 101 358 67 383 c 4
 48 396 39 403 39 411 c 4
 39 419 47 427 62 443 c 4
 86 468 97 499 104 556 c 4
 115 661 152 724 227 777 c 4
372 701 m 4
 349 718 322 726 297 726 c 4
 277 726 258 720 248 708 c 4
 219 673 195 571 195 508 c 4
 195 482 200 464 209 458 c 4
 217 452 254 445 294 441 c 4
 312 439 327 439 339 439 c 4
 399 439 406 466 406 570 c 4
 406 666 403 676 372 701 c 4
EndSplineSet
Validated: 1
LCarets2: 1 0
Ligature2: "'liga' Standard Ligatures in Latin lookup 0-1" f l
EndChar

StartChar: s_l
Encoding: 261 -1 73
Width: 592
Flags: HW
LayerCount: 2
Fore
SplineSet
257 803 m 4
 277 812 330 816 382 816 c 4
 438 816 493 812 503 802 c 4
 506 798 507 730 507 629 c 4
 507 574 506 509 505 441 c 4
 504 347 504 277 504 226 c 4
 504 87 509 80 531 56 c 4
 544 42 552 27 552 17 c 4
 552 15 552 14 551 12 c 4
 547 4 502 -3 450 -3 c 4
 379 -3 345 5 345 27 c 4
 345 37 353 51 368 67 c 4
 396 98 409 149 409 276 c 4
 409 322 407 377 404 445 c 4
 394 701 384 729 307 729 c 4
 237 729 208 680 198 540 c 4
 195 484 192 388 192 306 c 4
 192 289 192 271 192 256 c 4
 195 96 195 96 236 62 c 4
 259 44 268 34 268 25 c 4
 268 20 266 17 261 13 c 4
 254 7 227 4 196 4 c 4
 134 4 51 14 43 26 c 4
 42 27 42 29 42 31 c 4
 42 40 50 56 63 69 c 4
 87 95 92 114 92 227 c 4
 92 339 88 359 65 382 c 4
 48 399 40 412 40 424 c 4
 40 436 48 451 65 472 c 4
 79 491 92 525 92 548 c 4
 92 655 160 760 257 803 c 4
EndSplineSet
Validated: 1
LCarets2: 1 0
Ligature2: "'liga' Standard Ligatures in Latin lookup 0-1" s l
EndChar

StartChar: s_t
Encoding: 262 -1 74
Width: 679
Flags: HW
HStem: -7 98<515.628 601.036> 399 101<523.611 642.203> 779 69<258.848 362.703>
VStem: 94 108<76.7646 390.529> 401 97<106.601 379.857> 414 239<433 650.5>
LayerCount: 2
Fore
SplineSet
197 762 m 4xf4
 245 810 251 813 334 813 c 4
 382 813 433 809 443 805 c 4
 482 791 496 741 503 613 c 4
 510 490 511 486 543 482 c 4
 622 474 637 467 637 435 c 4xf4
 637 403 609 386 548 386 c 4
 505 386 490 348 490 231 c 4
 490 112 500 93 566 93 c 4
 601 93 619 83 619 66 c 4
 619 55 612 41 596 27 c 4
 574 9 541 0 510 0 c 4
 476 0 443 10 424 31 c 4
 403 52 398 67 398 142 c 4xf8
 398 162 398 188 399 218 c 4
 400 252 400 279 400 301 c 4
 400 366 395 380 380 388 c 4
 366 397 358 406 358 417 c 4
 358 429 367 445 384 460 c 4
 407 480 410 501 410 582 c 4
 410 668 406 685 377 713 c 4
 354 736 332 747 310 747 c 4
 281 747 252 726 237 686 c 4
 221 643 209 442 209 255 c 4
 209 225 209 193 210 164 c 4
 211 88 214 80 248 64 c 4
 268 54 284 37 284 27 c 4
 284 11 259 6 172 3 c 4
 158 3 145 2 133 2 c 4
 70 2 42 8 42 24 c 4
 42 34 51 46 68 62 c 4
 100 91 104 104 105 190 c 4
 105 214 106 236 106 254 c 4
 106 347 100 369 75 396 c 4
 62 409 55 416 55 425 c 4
 55 435 64 445 83 467 c 4
 107 496 118 524 118 557 c 4
 118 641 144 710 197 762 c 4xf4
EndSplineSet
Validated: 1
Ligature2: "'liga' Standard Ligatures in Latin lookup 0-1" s t
LCarets2: 1 0
EndChar

StartChar: s_s
Encoding: 263 -1 75
Width: 540
Flags: HW
LayerCount: 2
Fore
SplineSet
508 823 m 4
 520 830 551 834 584 834 c 4
 591 834 599 833 606 833 c 4
 661 829 684 821 702 797 c 4
 717 778 726 764 726 750 c 4
 726 738 719 726 708 710 c 4
 698 698 692 691 682 691 c 4
 673 691 662 695 644 703 c 4
 606 718 567 728 536 728 c 4
 514 728 495 724 485 715 c 4
 464 701 462 661 454 387 c 4
 451 280 448 209 448 161 c 4
 448 70 456 65 479 50 c 4
 496 40 509 27 509 20 c 4
 509 19 509 18 508 17 c 4
 505 11 471 4 433 -0 c 4
 412 -2 392 -3 375 -3 c 4
 320 -3 290 8 290 28 c 4
 290 39 299 54 320 70 c 4
 347 91 349 108 353 229 c 4
 354 257 355 279 355 298 c 4
 355 354 350 371 335 388 c 4
 324 400 318 408 318 417 c 4
 318 426 323 435 333 452 c 4
 347 477 356 531 356 579 c 4
 356 615 352 648 343 665 c 4
 332 686 300 700 272 700 c 4
 260 700 247 697 237 691 c 4
 197 670 185 597 175 347 c 4
 172 272 171 219 171 183 c 4
 171 111 177 100 195 77 c 4
 211 57 224 34 224 24 c 4
 224 7 180 -1 134 -1 c 4
 86 -1 36 9 29 26 c 4
 28 28 28 28 28 30 c 4
 28 40 37 56 50 67 c 4
 74 87 78 107 81 228 c 4
 82 256 82 276 82 294 c 4
 82 361 77 371 55 385 c 4
 37 397 27 409 27 421 c 4
 27 432 35 445 52 460 c 4
 68 474 79 500 79 527 c 4
 79 634 163 758 253 786 c 4
 270 791 283 794 296 794 c 4
 314 794 334 788 363 777 c 4
 391 767 407 761 418 761 c 4
 430 761 438 769 452 782 c 4
 468 795 494 815 508 823 c 4
EndSplineSet
Validated: 1
LCarets2: 1 0
Ligature2: "'liga' Standard Ligatures in Latin lookup 0-1" at at
EndChar

StartChar: exclam
Encoding: 33 33 76
Width: 202
Flags: HW
LayerCount: 2
Fore
SplineSet
80 790 m 0
 92 803 106 810 119 810 c 0
 137 810 155 799 166 777 c 0
 172 764 176 752 176 723 c 0
 176 683 168 611 151 457 c 0
 142 369 134 281 134 263 c 0
 133 237 117 221 101 221 c 0
 95 221 89 223 83 229 c 0
 76 236 68 308 66 400 c 0
 65 487 62 605 61 662 c 0
 61 677 61 690 61 702 c 0
 61 756 65 773 80 790 c 0
67 134 m 0
 80 141 95 148 100 148 c 0
 125 148 155 122 167 88 c 0
 172 74 174 64 174 56 c 0
 174 45 170 38 161 27 c 0
 148 13 128 7 108 7 c 0
 86 7 64 15 49 30 c 0
 33 46 26 61 26 77 c 0
 26 98 40 118 67 134 c 0
EndSplineSet
Validated: 1
EndChar

StartChar: one
Encoding: 49 49 77
Width: 382
Flags: HW
LayerCount: 2
Fore
SplineSet
80 441 m 0
 84 450 113 453 149 453 c 0
 213 453 300 443 310 433 c 0
 312 431 313 428 313 425 c 0
 313 414 301 398 276 381 c 0
 244 359 248 361 244 229 c 0
 244 223 244 217 244 211 c 0
 244 199 244 188 244 178 c 0
 244 86 253 56 277 51 c 0
 301 46 312 48 312 36 c 0
 312 34 312 32 312 30 c 0
 309 13 292 4 230 1 c 0
 210 0 193 -1 177 -1 c 0
 103 -1 69 12 69 40 c 0
 69 55 103 63 117 69 c 0
 131 75 151 105 151 235 c 0
 151 273 152 300 152 319 c 0
 152 361 147 368 122 380 c 0
 93 394 77 409 77 427 c 0
 77 431 78 436 80 441 c 0
EndSplineSet
Validated: 1
EndChar

StartChar: two
Encoding: 50 50 78
Width: 452
Flags: HW
LayerCount: 2
Fore
SplineSet
141 428 m 0
 159 436 177 439 194 439 c 0
 257 439 312 392 312 325 c 0
 312 294 304 274 276 232 c 0
 256 201 229 168 216 157 c 0
 201 144 193 132 193 122 c 0
 193 112 201 103 217 97 c 0
 224 94 233 94 244 94 c 0
 274 94 316 104 350 122 c 0
 360 127 368 129 374 129 c 0
 384 129 390 123 390 110 c 0
 390 100 387 85 380 66 c 0
 356 4 337 -3 194 -3 c 0
 93 -3 73 -1 68 11 c 0
 64 20 62 28 62 36 c 0
 62 54 73 68 96 86 c 0
 182 152 228 214 228 261 c 0
 228 275 224 287 216 298 c 0
 206 312 188 316 134 320 c 0
 81 323 64 327 64 345 c 0
 64 368 105 411 141 428 c 0
EndSplineSet
Validated: 1
EndChar

StartChar: three
Encoding: 51 51 79
Width: 460
Flags: HW
LayerCount: 2
Fore
SplineSet
147 138 m 0
 167 150 182 157 194 157 c 0
 206 157 213 150 217 138 c 0
 219 127 239 107 261 93 c 0
 316 58 345 25 363 -26 c 0
 372 -53 377 -79 377 -105 c 0
 377 -185 333 -258 248 -314 c 0
 217 -335 184 -345 157 -345 c 0
 124 -345 101 -329 101 -301 c 0
 101 -265 121 -253 176 -253 c 0
 219 -253 230 -248 255 -222 c 0
 279 -196 291 -163 291 -131 c 0
 291 -112 286 -93 278 -77 c 0
 255 -34 194 14 136 34 c 0
 109 42 87 61 84 66 c 0
 83 67 83 69 83 71 c 0
 83 87 110 116 147 138 c 0
156 421 m 0
 179 431 201 436 221 436 c 0
 252 436 278 424 302 400 c 0
 331 371 337 357 337 323 c 0
 337 271 306 209 270 185 c 0
 258 177 249 173 242 173 c 0
 235 173 231 178 231 188 c 0
 231 197 235 210 241 227 c 0
 248 245 252 265 252 277 c 0
 252 281 252 284 251 286 c 0
 243 307 202 324 167 324 c 0
 160 324 154 323 148 322 c 0
 136 319 126 318 118 318 c 0
 99 318 91 326 91 342 c 0
 91 369 121 406 156 421 c 0
EndSplineSet
Validated: 1
EndChar

StartChar: four
Encoding: 52 52 80
Width: 555
Flags: HW
LayerCount: 2
Fore
SplineSet
311 262 m 0
 305 280 298 290 289 290 c 0
 274 290 250 265 200 205 c 0
 160 157 142 130 142 114 c 0
 142 106 146 100 155 97 c 0
 165 93 189 92 215 92 c 0
 256 92 303 96 310 103 c 0
 317 110 320 141 320 176 c 0
 320 208 318 243 311 262 c 0
343 433 m 0
 347 435 351 436 355 436 c 0
 362 436 368 433 374 428 c 0
 382 420 386 400 386 334 c 0
 386 316 385 294 385 268 c 0
 385 243 384 221 384 203 c 0
 384 140 387 118 394 112 c 0
 401 107 430 101 460 99 c 0
 505 97 513 93 516 79 c 0
 516 77 517 75 517 73 c 0
 517 52 491 38 453 38 c 0
 431 38 413 32 402 21 c 0
 391 10 387 1 387 -36 c 0
 387 -54 389 -78 390 -112 c 0
 391 -139 392 -160 392 -178 c 0
 392 -236 383 -249 352 -249 c 0
 346 -249 339 -249 332 -248 c 0
 308 -246 300 -250 300 -212 c 0
 300 -188 303 -149 308 -81 c 0
 310 -50 311 -30 311 -16 c 0
 311 11 306 13 291 19 c 0
 285 22 268 23 245 23 c 0
 198 23 124 17 64 9 c 0
 62 9 61 9 59 9 c 0
 49 9 46 17 44 40 c 0
 44 44 43 48 43 51 c 0
 43 71 50 84 75 112 c 0
 94 134 122 169 136 191 c 0
 150 213 177 248 195 268 c 0
 212 289 248 333 275 366 c 0
 302 399 333 429 343 433 c 0
EndSplineSet
Validated: 1
EndChar

StartChar: five
Encoding: 53 53 81
Width: 424
Flags: HW
LayerCount: 2
Fore
SplineSet
286 458 m 0
 300 474 314 481 329 481 c 0
 330 481 331 481 332 481 c 0
 350 479 359 468 359 450 c 0
 359 433 351 409 335 379 c 0
 305 327 288 318 211 316 c 0
 185 315 158 309 158 301 c 0
 158 292 177 268 211 237 c 0
 283 171 319 96 319 18 c 0
 319 -39 301 -97 263 -157 c 0
 216 -232 158 -277 114 -277 c 0
 103 -277 94 -274 85 -268 c 0
 82 -266 80 -263 80 -260 c 0
 80 -251 93 -236 126 -202 c 0
 202 -124 217 -93 217 -13 c 0
 217 -11 217 -9 217 -6 c 0
 216 79 198 115 119 182 c 0
 82 214 65 235 65 251 c 0
 65 263 81 305 101 344 c 0
 139 420 156 433 224 433 c 0
 255 433 270 439 286 458 c 0
EndSplineSet
Validated: 1
EndChar

StartChar: six
Encoding: 54 54 82
Width: 538
Flags: HW
LayerCount: 2
Fore
SplineSet
288 299 m 0
 271 316 246 325 222 325 c 0
 202 325 183 319 171 306 c 0
 146 279 134 235 134 191 c 0
 134 136 153 83 187 66 c 0
 202 58 221 55 239 55 c 0
 260 55 281 60 294 69 c 0
 318 87 339 133 339 169 c 0
 339 209 315 271 288 299 c 0
432 575 m 0
 442 577 454 580 464 580 c 0
 476 580 492 575 492 547 c 0
 492 523 468 494 451 494 c 0
 429 494 338 449 294 417 c 0
 265 396 250 380 250 368 c 0
 250 357 262 348 286 342 c 0
 334 329 385 293 407 258 c 0
 418 240 424 207 424 174 c 0
 424 144 419 113 409 94 c 0
 378 35 313 -3 240 -3 c 0
 237 -3 234 -3 231 -3 c 0
 195 -3 180 2 143 27 c 0
 90 62 58 115 48 181 c 0
 47 189 46 196 46 204 c 0
 46 296 120 409 231 479 c 0
 297 521 407 570 432 575 c 0
EndSplineSet
Validated: 1
EndChar

StartChar: seven
Encoding: 55 55 83
Width: 532
Flags: HW
LayerCount: 2
Fore
SplineSet
98 359 m 0
 134 414 142 424 229 424 c 0
 249 424 273 423 303 422 c 0
 430 420 467 417 472 407 c 0
 474 404 475 400 475 395 c 0
 475 375 462 337 439 292 c 0
 382 170 377 149 357 106 c 0
 334 57 251 -135 229 -191 c 0
 219 -215 207 -242 202 -247 c 0
 196 -254 185 -258 173 -258 c 0
 161 -258 148 -254 142 -246 c 0
 138 -241 136 -233 136 -223 c 0
 136 -206 142 -184 151 -173 c 0
 155 -168 187 -106 223 -38 c 0
 258 31 307 126 331 175 c 0
 346 203 378 282 378 308 c 0
 378 312 377 315 375 316 c 0
 365 320 313 325 258 325 c 0
 167 325 157 324 126 303 c 0
 104 288 85 281 72 281 c 0
 62 281 57 286 57 287 c 0
 57 293 75 325 98 359 c 0
EndSplineSet
Validated: 1
EndChar

StartChar: eight
Encoding: 56 56 84
Width: 502
Flags: HW
LayerCount: 2
Fore
SplineSet
291 274 m 0
 270 295 249 306 230 306 c 0
 215 306 201 299 188 286 c 0
 157 252 148 226 148 179 c 0
 148 101 191 52 246 52 c 0
 265 52 284 58 304 70 c 0
 332 87 347 118 347 153 c 0
 347 193 328 238 291 274 c 0
316 641 m 0
 304 653 284 665 270 669 c 0
 266 670 262 670 258 670 c 0
 225 670 182 642 163 607 c 0
 156 594 153 583 153 570 c 0
 153 558 156 544 162 527 c 0
 179 481 241 410 264 410 c 0
 271 410 289 424 305 441 c 0
 334 470 349 513 349 553 c 0
 349 587 338 620 316 641 c 0
201 729 m 0
 216 732 230 734 244 734 c 0
 344 734 433 657 435 558 c 0
 435 555 435 552 435 549 c 0
 435 514 429 500 408 473 c 0
 393 453 363 423 340 407 c 0
 317 391 299 375 299 371 c 0
 299 367 310 353 324 341 c 0
 388 288 420 224 420 165 c 0
 420 104 386 47 318 11 c 0
 288 -5 263 -10 239 -10 c 0
 234 -10 228 -10 223 -9 c 0
 145 3 105 37 77 118 c 0
 70 137 67 155 67 172 c 0
 67 214 86 251 124 286 c 0
 159 317 188 325 188 344 c 0
 188 356 177 372 149 399 c 0
 100 447 74 506 74 563 c 0
 74 591 80 617 92 643 c 0
 115 690 150 718 201 729 c 0
EndSplineSet
Validated: 1
EndChar

StartChar: nine
Encoding: 57 57 85
Width: 541
Flags: HW
LayerCount: 2
Fore
SplineSet
322 354 m 0
 303 363 283 370 275 370 c 0
 246 370 193 333 174 301 c 0
 161 279 153 255 153 226 c 0
 153 213 154 199 158 184 c 0
 170 136 212 102 267 81 c 0
 285 74 301 71 315 71 c 0
 361 71 385 110 392 191 c 0
 393 199 393 206 393 213 c 0
 393 278 366 333 322 354 c 0
176 410 m 0
 204 428 236 435 266 435 c 0
 336 435 403 397 430 359 c 0
 467 308 480 265 480 230 c 0
 480 228 480 226 480 224 c 0
 470 28 364 -87 162 -204 c 1
 124 -221 86 -238 77 -244 c 0
 66 -250 55 -252 44 -252 c 0
 30 -252 18 -248 10 -238 c 0
 6 -233 4 -229 4 -224 c 0
 4 -209 24 -192 68 -169 c 0
 129 -138 274 -30 288 -5 c 0
 289 -3 289 -2 289 0 c 0
 289 23 216 45 186 62 c 1
 105 97 63 162 63 230 c 0
 63 295 101 362 176 410 c 0
EndSplineSet
Validated: 1
EndChar

StartChar: zero
Encoding: 48 48 86
Width: 523
Flags: HW
LayerCount: 2
Fore
SplineSet
351 325 m 0
 327 351 315 356 274 359 c 0
 270 359 267 360 263 360 c 0
 182 360 124 302 124 223 c 0
 124 217 125 210 126 203 c 0
 129 177 134 149 137 141 c 0
 149 109 219 85 276 85 c 0
 294 85 310 88 324 93 c 0
 376 115 403 157 403 205 c 0
 403 244 386 287 351 325 c 0
222 436 m 0
 234 438 248 439 258 439 c 0
 262 439 265 439 267 438 c 0
 324 426 340 420 378 399 c 0
 436 367 468 303 468 231 c 0
 468 196 461 160 445 125 c 0
 414 54 380 22 318 4 c 0
 295 -3 274 -7 254 -7 c 0
 217 -7 183 6 143 32 c 0
 75 76 55 118 55 217 c 0
 56 272 60 302 71 325 c 0
 100 380 158 423 222 436 c 0
EndSplineSet
Validated: 1
EndChar
